<svg width="162" height="54" viewBox="0 0 162 54" fill="none" xmlns="http://www.w3.org/2000/svg">
<g clip-path="url(#clip0_43_7)">
<path d="M148 2.625H15.5C11.0127 2.625 7.375 6.26269 7.375 10.75V43.25C7.375 47.7373 11.0127 51.375 15.5 51.375H148C152.487 51.375 156.125 47.7373 156.125 43.25V10.75C156.125 6.26269 152.487 2.625 148 2.625Z" fill="white"/>
<path d="M108.657 26.0011V28.8648H106.862V30.743H108.657V37.1242C108.657 39.3031 109.643 40.1747 112.123 40.1747C112.559 40.1747 112.974 40.1228 113.337 40.0606V38.2032C113.026 38.2344 112.828 38.2551 112.486 38.2551C111.376 38.2551 110.888 37.7363 110.888 36.5535V30.743H113.337V28.8648H110.888V26.0011H108.657Z" fill="black"/>
<path d="M119.654 40.3303C122.954 40.3303 124.977 38.1202 124.977 34.4576C124.977 30.8156 122.943 28.5951 119.654 28.5951C116.355 28.5951 114.321 30.8156 114.321 34.4576C114.321 38.1202 116.344 40.3303 119.654 40.3303ZM119.654 38.3486C117.714 38.3486 116.624 36.927 116.624 34.4576C116.624 32.0088 117.714 30.577 119.654 30.577C121.584 30.577 122.684 32.0088 122.684 34.4576C122.684 36.9166 121.584 38.3486 119.654 38.3486Z" fill="black"/>
<path d="M126.708 40.1125H128.939V33.4407C128.939 31.8532 130.132 30.7845 131.824 30.7845C132.218 30.7845 132.883 30.8571 133.069 30.9193V28.7196C132.83 28.6573 132.405 28.6262 132.073 28.6262C130.599 28.6262 129.344 29.4356 129.022 30.5458H128.856V28.813H126.708V40.1125Z" fill="black"/>
<path d="M138.608 30.494C140.258 30.494 141.336 31.6456 141.389 33.42H135.681C135.806 31.656 136.958 30.494 138.608 30.494ZM141.379 37.062C140.964 37.9438 140.04 38.4316 138.691 38.4316C136.906 38.4316 135.755 37.1761 135.681 35.1942V35.0697H143.661V34.2915C143.661 30.743 141.763 28.5951 138.619 28.5951C135.433 28.5951 133.41 30.8882 133.41 34.4991C133.41 38.1098 135.391 40.3303 138.629 40.3303C141.213 40.3303 143.018 39.0852 143.526 37.062H141.379Z" fill="black"/>
<path d="M94.0279 35.9398C94.1999 38.7144 96.5121 40.4889 99.9535 40.4889C103.632 40.4889 105.933 38.6284 105.933 35.6602C105.933 33.3265 104.621 32.0359 101.438 31.2939L99.7276 30.8745C97.7059 30.4013 96.8885 29.7668 96.8885 28.659C96.8885 27.261 98.1575 26.3469 100.061 26.3469C101.868 26.3469 103.115 27.2395 103.341 28.6698H105.686C105.546 26.0565 103.244 24.2175 100.093 24.2175C96.7058 24.2175 94.4473 26.0565 94.4473 28.8204C94.4473 31.1003 95.727 32.4554 98.534 33.1114L100.534 33.5954C102.588 34.0793 103.492 34.789 103.492 35.972C103.492 37.3487 102.072 38.3488 100.136 38.3488C98.0608 38.3488 96.6196 37.4132 96.4154 35.9398H94.0279Z" fill="black"/>
<path d="M70.9186 28.6262C69.383 28.6262 68.0549 29.3941 67.3702 30.6807H67.2041V28.813H65.0563V43.8686H67.2871V38.4005H67.4635C68.0549 39.5936 69.3311 40.2992 70.9395 40.2992C73.7929 40.2992 75.6086 38.0476 75.6086 34.4576C75.6086 30.8675 73.7929 28.6262 70.9186 28.6262ZM70.2858 38.2966C68.4182 38.2966 67.2456 36.8232 67.2456 34.468C67.2456 32.1022 68.4181 30.6288 70.2961 30.6288C72.1845 30.6288 73.3155 32.0711 73.3155 34.4576C73.3155 36.8543 72.1845 38.2966 70.2858 38.2966Z" fill="black"/>
<path d="M83.4146 28.6262C81.879 28.6262 80.5509 29.3941 79.8661 30.6807H79.7001V28.813H77.5522V43.8686H79.7831V38.4005H79.9595C80.5509 39.5936 81.8271 40.2992 83.4354 40.2992C86.2889 40.2992 88.1046 38.0476 88.1046 34.4576C88.1046 30.8675 86.2889 28.6262 83.4146 28.6262ZM82.7817 38.2966C80.9141 38.2966 79.7416 36.8232 79.7416 34.468C79.7416 32.1022 80.9141 30.6288 82.7921 30.6288C84.6805 30.6288 85.8115 32.0711 85.8115 34.4576C85.8115 36.8543 84.6805 38.2966 82.7817 38.2966Z" fill="black"/>
<path d="M61.0537 40.1125H63.6132L58.0102 24.5939H55.4185L49.8154 40.1125H52.2889L53.7192 35.9935H59.6341L61.0537 40.1125ZM56.5906 27.4115H56.7735L59.0211 33.9717H54.3322L56.5906 27.4115Z" fill="black"/>
<path d="M51.3138 12.8887V20.375H54.0168C56.2476 20.375 57.5395 19.0001 57.5395 16.6085C57.5395 14.2531 56.2372 12.8887 54.0168 12.8887H51.3138ZM52.476 13.947H53.8871C55.4383 13.947 56.3566 14.9327 56.3566 16.624C56.3566 18.3412 55.4538 19.3166 53.8871 19.3166H52.476V13.947Z" fill="black"/>
<path d="M61.4958 20.4838C63.1456 20.4838 64.1572 19.3788 64.1572 17.5475C64.1572 15.7265 63.1405 14.6162 61.4958 14.6162C59.8461 14.6162 58.8292 15.7265 58.8292 17.5475C58.8292 19.3788 59.8408 20.4838 61.4958 20.4838ZM61.4958 19.493C60.5257 19.493 59.981 18.7822 59.981 17.5475C59.981 16.3231 60.5257 15.6071 61.4958 15.6071C62.4608 15.6071 63.0107 16.3231 63.0107 17.5475C63.0107 18.777 62.4608 19.493 61.4958 19.493Z" fill="black"/>
<path d="M72.7725 14.7252H71.657L70.6506 19.0365H70.5624L69.4002 14.7252H68.3315L67.1693 19.0365H67.0864L66.0747 14.7252H64.9437L66.5001 20.375H67.6467L68.8088 16.2141H68.897L70.0644 20.375H71.2212L72.7725 14.7252Z" fill="black"/>
<path d="M74.057 20.375H75.1724V17.0702C75.1724 16.1882 75.6964 15.6382 76.5213 15.6382C77.3463 15.6382 77.7405 16.0896 77.7405 16.9975V20.375H78.8559V16.7173C78.8559 15.3737 78.1608 14.6162 76.9 14.6162C76.0493 14.6162 75.4889 14.995 75.2139 15.6227H75.1309V14.7252H74.057V20.375Z" fill="black"/>
<path d="M80.6125 20.3749H81.728V12.5203H80.6125V20.3749Z" fill="black"/>
<path d="M85.923 20.4838C87.5727 20.4838 88.5843 19.3788 88.5843 17.5475C88.5843 15.7265 87.5676 14.6162 85.923 14.6162C84.2732 14.6162 83.2563 15.7265 83.2563 17.5475C83.2563 19.3788 84.268 20.4838 85.923 20.4838ZM85.923 19.493C84.9528 19.493 84.4081 18.7822 84.4081 17.5475C84.4081 16.3231 84.9528 15.6071 85.923 15.6071C86.888 15.6071 87.4378 16.3231 87.4378 17.5475C87.4378 18.777 86.888 19.493 85.923 19.493Z" fill="black"/>
<path d="M91.9079 19.5292C91.3009 19.5292 90.8599 19.2336 90.8599 18.7251C90.8599 18.2271 91.2126 17.9625 91.9909 17.9106L93.3709 17.8225V18.2945C93.3709 18.9948 92.7483 19.5292 91.9079 19.5292ZM91.6225 20.4683C92.3644 20.4683 92.9818 20.1466 93.319 19.5811H93.4071V20.375H94.4811V16.5151C94.4811 15.3218 93.6821 14.6162 92.2658 14.6162C90.9844 14.6162 90.0712 15.2388 89.9571 16.209H91.0363C91.1608 15.8095 91.5914 15.5812 92.2139 15.5812C92.9765 15.5812 93.3709 15.9185 93.3709 16.5151V17.0027L91.8404 17.091C90.4968 17.174 89.7393 17.7602 89.7393 18.777C89.7393 19.8095 90.533 20.4683 91.6225 20.4683Z" fill="black"/>
<path d="M98.2663 20.4683C99.0444 20.4683 99.7033 20.0999 100.041 19.4826H100.129V20.3749H101.198V12.5203H100.082V15.6227H99.999C99.6929 15.0001 99.0393 14.6318 98.2663 14.6318C96.8395 14.6318 95.9213 15.7628 95.9213 17.5474C95.9213 19.3373 96.8291 20.4683 98.2663 20.4683ZM98.5828 15.6331C99.5165 15.6331 100.103 16.3749 100.103 17.5526C100.103 18.7354 99.5218 19.4669 98.5828 19.4669C97.6385 19.4669 97.073 18.7458 97.073 17.5474C97.073 16.3593 97.6436 15.6331 98.5828 15.6331Z" fill="black"/>
<path d="M108.43 20.4838C110.08 20.4838 111.092 19.3788 111.092 17.5475C111.092 15.7265 110.075 14.6162 108.43 14.6162C106.781 14.6162 105.764 15.7265 105.764 17.5475C105.764 19.3788 106.776 20.4838 108.43 20.4838ZM108.43 19.493C107.46 19.493 106.916 18.7822 106.916 17.5475C106.916 16.3231 107.46 15.6071 108.43 15.6071C109.395 15.6071 109.945 16.3231 109.945 17.5475C109.945 18.777 109.395 19.493 108.43 19.493Z" fill="black"/>
<path d="M112.568 20.375H113.684V17.0702C113.684 16.1882 114.208 15.6382 115.033 15.6382C115.858 15.6382 116.252 16.0896 116.252 16.9975V20.375H117.367V16.7173C117.367 15.3737 116.672 14.6162 115.411 14.6162C114.561 14.6162 114 14.995 113.725 15.6227H113.642V14.7252H112.568V20.375Z" fill="black"/>
<path d="M122.504 13.3193V14.7512H121.607V15.6902H122.504V18.8808C122.504 19.9703 122.997 20.4062 124.237 20.4062C124.455 20.4062 124.663 20.3802 124.844 20.3491V19.4204C124.689 19.4359 124.59 19.4463 124.419 19.4463C123.864 19.4463 123.62 19.1869 123.62 18.5956V15.6902H124.844V14.7512H123.62V13.3193H122.504Z" fill="black"/>
<path d="M126.341 20.3749H127.457V17.0753C127.457 16.2193 127.965 15.6434 128.878 15.6434C129.667 15.6434 130.087 16.0999 130.087 17.0027V20.3749H131.203V16.7277C131.203 15.3841 130.461 14.6214 129.257 14.6214C128.406 14.6214 127.81 15.0001 127.535 15.6331H127.447V12.5203H126.341V20.3749Z" fill="black"/>
<path d="M135.226 15.5656C136.051 15.5656 136.591 16.1415 136.617 17.0286H133.764C133.826 16.1467 134.401 15.5656 135.226 15.5656ZM136.611 18.8496C136.404 19.2906 135.943 19.5345 135.268 19.5345C134.376 19.5345 133.8 18.9067 133.764 17.9158V17.8536H137.753V17.4645C137.753 15.6901 136.804 14.6162 135.231 14.6162C133.639 14.6162 132.628 15.7628 132.628 17.5682C132.628 19.3736 133.619 20.4838 135.236 20.4838C136.529 20.4838 137.431 19.8613 137.685 18.8496H136.611Z" fill="black"/>
<path d="M37.7112 27.376C37.7384 25.2747 38.8667 23.2865 40.657 22.186C39.5276 20.573 37.636 19.5504 35.668 19.4889C33.569 19.2685 31.534 20.7449 30.4644 20.7449C29.374 20.7449 27.7271 19.5107 25.9537 19.5472C23.6421 19.6219 21.4872 20.9361 20.3626 22.957C17.9451 27.1426 19.7484 33.2939 22.0641 36.6771C23.2227 38.3339 24.5769 40.1844 26.3486 40.1187C28.0825 40.0469 28.73 39.0131 30.8229 39.0131C32.8964 39.0131 33.5039 40.1187 35.3116 40.077C37.1721 40.0469 38.3442 38.413 39.4622 36.7406C40.2947 35.5601 40.9354 34.2555 41.3602 32.875C39.1739 31.9502 37.7137 29.75 37.7112 27.376Z" fill="black"/>
<path d="M34.2967 17.2639C35.3112 16.0462 35.8109 14.4809 35.6898 12.9006C34.14 13.0634 32.7085 13.8041 31.6804 14.9752C30.675 16.1193 30.1518 17.6569 30.2508 19.1769C31.801 19.1928 33.3252 18.4722 34.2967 17.2639Z" fill="black"/>
<path d="M148 2.625H15.5C11.0127 2.625 7.375 6.26269 7.375 10.75V43.25C7.375 47.7373 11.0127 51.375 15.5 51.375H148C152.487 51.375 156.125 47.7373 156.125 43.25V10.75C156.125 6.26269 152.487 2.625 148 2.625Z" stroke="black"/>
</g>
<defs>
<clipPath id="clip0_43_7">
<rect width="150" height="50" fill="white" transform="translate(6.75 2)"/>
</clipPath>
</defs>
</svg>
