<svg width="169" height="50" viewBox="0 0 169 50" fill="none" xmlns="http://www.w3.org/2000/svg">
<g clip-path="url(#clip0_45_43)">
<path d="M162.5 0.625H6.25C3.1434 0.625 0.625 3.1434 0.625 6.25V43.75C0.625 46.8566 3.1434 49.375 6.25 49.375H162.5C165.607 49.375 168.125 46.8566 168.125 43.75V6.25C168.125 3.1434 165.607 0.625 162.5 0.625Z" fill="white"/>
<path d="M85.17 27.1888C82.23 27.1888 79.8337 29.4251 79.8337 32.5051C79.8337 35.5663 82.23 37.8213 85.17 37.8213C88.1112 37.8213 90.5075 35.5663 90.5075 32.5051C90.5062 29.4251 88.11 27.1888 85.17 27.1888ZM85.17 35.7288C83.5587 35.7288 82.17 34.4001 82.17 32.5063C82.17 30.5926 83.56 29.2838 85.17 29.2838C86.7812 29.2838 88.17 30.5926 88.17 32.5063C88.17 34.3988 86.7812 35.7288 85.17 35.7288ZM73.5275 27.1888C70.5875 27.1888 68.1912 29.4251 68.1912 32.5051C68.1912 35.5663 70.5875 37.8213 73.5275 37.8213C76.4687 37.8213 78.865 35.5663 78.865 32.5051C78.865 29.4251 76.4687 27.1888 73.5275 27.1888ZM73.5275 35.7288C71.9162 35.7288 70.5275 34.4001 70.5275 32.5063C70.5275 30.5926 71.9175 29.2838 73.5275 29.2838C75.1387 29.2838 76.5275 30.5926 76.5275 32.5063C76.5287 34.3988 75.1387 35.7288 73.5275 35.7288ZM59.68 28.8213V31.0763H65.0775C64.9162 32.3451 64.4937 33.2713 63.8487 33.9151C63.0637 34.7001 61.835 35.5663 59.68 35.5663C56.3575 35.5663 53.76 32.8876 53.76 29.5651C53.76 26.2426 56.3575 23.5638 59.68 23.5638C61.4725 23.5638 62.7812 24.2688 63.7475 25.1751L65.3387 23.5838C63.9887 22.2951 62.1975 21.3088 59.68 21.3088C55.1287 21.3088 51.3025 25.0138 51.3025 29.5651C51.3025 34.1163 55.1287 37.8213 59.68 37.8213C62.1362 37.8213 63.99 37.0151 65.4387 35.5051C66.9287 34.0151 67.3925 31.9201 67.3925 30.2288C67.3925 29.7063 67.3525 29.2226 67.2712 28.8201L59.68 28.8213ZM116.315 30.5726C115.872 29.3851 114.522 27.1888 111.764 27.1888C109.025 27.1888 106.749 29.3438 106.749 32.5051C106.749 35.4851 109.005 37.8213 112.025 37.8213C114.461 37.8213 115.871 36.3313 116.456 35.4651L114.644 34.2563C114.04 35.1426 113.214 35.7263 112.025 35.7263C110.837 35.7263 109.991 35.1826 109.447 34.1151L116.556 31.1751L116.315 30.5726ZM109.065 32.3451C109.005 30.2901 110.656 29.2438 111.845 29.2438C112.771 29.2438 113.556 29.7076 113.819 30.3713L109.065 32.3451ZM103.286 37.5001H105.621V21.8738H103.286V37.5001ZM99.4587 28.3776H99.3787C98.855 27.7526 97.8475 27.1888 96.58 27.1888C93.9212 27.1888 91.485 29.5251 91.485 32.5263C91.485 35.5063 93.9212 37.8226 96.58 37.8226C97.8487 37.8226 98.855 37.2588 99.3787 36.6151H99.4587V37.3801C99.4587 39.4138 98.3712 40.5013 96.62 40.5013C95.19 40.5013 94.3037 39.4751 93.9412 38.6088L91.9075 39.4551C92.4912 40.8638 94.0412 42.5963 96.62 42.5963C99.3587 42.5963 101.675 40.9851 101.675 37.0576V27.5126H99.46L99.4587 28.3776ZM96.7812 35.7288C95.17 35.7288 93.8212 34.3788 93.8212 32.5263C93.8212 30.6526 95.17 29.2838 96.7812 29.2838C98.3712 29.2838 99.62 30.6526 99.62 32.5263C99.62 34.3788 98.3712 35.7288 96.7812 35.7288ZM127.257 21.8738H121.669V37.5001H124V31.5801H127.256C129.841 31.5801 132.384 29.7088 132.384 26.7276C132.384 23.7463 129.842 21.8738 127.257 21.8738ZM127.317 29.4051H124V24.0488H127.317C129.061 24.0488 130.051 25.4926 130.051 26.7276C130.051 27.9376 129.061 29.4051 127.317 29.4051ZM141.732 27.1613C140.044 27.1613 138.295 27.9051 137.571 29.5538L139.641 30.4176C140.084 29.5538 140.909 29.2713 141.772 29.2713C142.979 29.2713 144.205 29.9951 144.225 31.2813V31.4426C143.802 31.2013 142.897 30.8401 141.792 30.8401C139.561 30.8401 137.289 32.0663 137.289 34.3576C137.289 36.4488 139.119 37.7951 141.169 37.7951C142.736 37.7951 143.601 37.0913 144.144 36.2663H144.224V37.4726H146.476V31.4813C146.477 28.7088 144.405 27.1613 141.732 27.1613ZM141.45 35.7251C140.687 35.7251 139.621 35.3426 139.621 34.3976C139.621 33.1913 140.949 32.7288 142.095 32.7288C143.119 32.7288 143.602 32.9501 144.225 33.2513C144.044 34.7001 142.797 35.7251 141.45 35.7251ZM154.679 27.5026L152.005 34.2776H151.925L149.15 27.5026H146.637L150.799 36.9713L148.426 42.2388H150.859L157.272 27.5026H154.679ZM133.671 37.5001H136.002V21.8738H133.671V37.5001Z" fill="black"/>
<path d="M59.2725 12.8036C59.2725 13.8511 58.9626 14.6848 58.3412 15.3073C57.6362 16.0473 56.7164 16.4173 55.5864 16.4173C54.5039 16.4173 53.5826 16.0423 52.8264 15.2923C52.0689 14.5411 51.6901 13.6111 51.6901 12.5011C51.6901 11.3899 52.0689 10.4599 52.8264 9.70987C53.5826 8.95862 54.5039 8.58362 55.5864 8.58362C56.1239 8.58362 56.6376 8.68862 57.1251 8.89737C57.6139 9.10737 58.005 9.38612 58.2976 9.73487L57.6387 10.3949C57.1425 9.80112 56.4587 9.50487 55.585 9.50487C54.795 9.50487 54.1125 9.78237 53.5362 10.3374C52.96 10.8924 52.6726 11.6136 52.6726 12.4999C52.6726 13.3861 52.96 14.1073 53.5362 14.6623C54.1125 15.2173 54.795 15.4948 55.585 15.4948C56.4225 15.4948 57.1214 15.2161 57.6801 14.6573C58.0426 14.2936 58.2525 13.7873 58.3087 13.1386H55.585V12.2374H59.2187C59.2562 12.4336 59.2725 12.6223 59.2725 12.8036Z" fill="black"/>
<path d="M65.0351 9.67125H61.6201V12.0487H64.7001V12.95H61.6201V15.3275H65.0351V16.25H60.6564V8.75H65.0351V9.67125Z" fill="black"/>
<path d="M69.0987 16.25H68.135V9.67125H66.04V8.75H71.1937V9.67125H69.0987V16.25Z" fill="black"/>
<path d="M74.9225 16.25V8.75H75.8862V16.25H74.9225Z" fill="black"/>
<path d="M80.1601 16.25H79.1965V9.67125H77.1015V8.75H82.2553V9.67125H80.1601V16.25Z" fill="black"/>
<path d="M92.0111 15.2813C91.2736 16.0388 90.3573 16.4176 89.2611 16.4176C88.1648 16.4176 87.2486 16.0388 86.5124 15.2813C85.7749 14.5238 85.4073 13.5963 85.4073 12.5C85.4073 11.4038 85.7749 10.4763 86.5124 9.7188C87.2486 8.9613 88.1648 8.5813 89.2611 8.5813C90.3511 8.5813 91.2661 8.96255 92.0061 9.7238C92.7461 10.485 93.1161 11.41 93.1161 12.5C93.1161 13.5963 92.7474 14.5238 92.0111 15.2813ZM87.2236 14.6526C87.7786 15.2151 88.4573 15.4951 89.2611 15.4951C90.0648 15.4951 90.7449 15.2138 91.2986 14.6526C91.8536 14.0901 92.1324 13.3726 92.1324 12.5C92.1324 11.6275 91.8536 10.91 91.2986 10.3475C90.7449 9.78505 90.0648 9.50505 89.2611 9.50505C88.4573 9.50505 87.7786 9.7863 87.2236 10.3475C86.6699 10.91 86.3911 11.6275 86.3911 12.5C86.3911 13.3726 86.6699 14.0901 87.2236 14.6526Z" fill="black"/>
<path d="M94.4686 16.25V8.75H95.6413L99.2863 14.5837H99.3274L99.2863 13.1387V8.75H100.25V16.25H99.2436L95.43 10.1325H95.3886L95.43 11.5775V16.25H94.4686Z" fill="black"/>
<path d="M59.2725 12.8036C59.2725 13.8511 58.9626 14.6848 58.3412 15.3073C57.6362 16.0473 56.7164 16.4173 55.5864 16.4173C54.5039 16.4173 53.5826 16.0423 52.8264 15.2923C52.0689 14.5411 51.6901 13.6111 51.6901 12.5011C51.6901 11.3899 52.0689 10.4599 52.8264 9.70987C53.5826 8.95862 54.5039 8.58362 55.5864 8.58362C56.1239 8.58362 56.6376 8.68862 57.1251 8.89737C57.6139 9.10737 58.005 9.38612 58.2976 9.73487L57.6387 10.3949C57.1425 9.80112 56.4587 9.50487 55.585 9.50487C54.795 9.50487 54.1125 9.78237 53.5362 10.3374C52.96 10.8924 52.6726 11.6136 52.6726 12.4999C52.6726 13.3861 52.96 14.1073 53.5362 14.6623C54.1125 15.2173 54.795 15.4948 55.585 15.4948C56.4225 15.4948 57.1214 15.2161 57.6801 14.6573C58.0426 14.2936 58.2525 13.7873 58.3087 13.1386H55.585V12.2374H59.2187C59.2562 12.4336 59.2725 12.6223 59.2725 12.8036Z" stroke="black" stroke-width="0.2" stroke-miterlimit="10"/>
<path d="M65.0351 9.67125H61.6201V12.0487H64.7001V12.95H61.6201V15.3275H65.0351V16.25H60.6564V8.75H65.0351V9.67125Z" stroke="black" stroke-width="0.2" stroke-miterlimit="10"/>
<path d="M69.0987 16.25H68.135V9.67125H66.04V8.75H71.1937V9.67125H69.0987V16.25Z" stroke="black" stroke-width="0.2" stroke-miterlimit="10"/>
<path d="M74.9225 16.25V8.75H75.8862V16.25H74.9225Z" stroke="black" stroke-width="0.2" stroke-miterlimit="10"/>
<path d="M80.1601 16.25H79.1965V9.67125H77.1015V8.75H82.2553V9.67125H80.1601V16.25Z" stroke="black" stroke-width="0.2" stroke-miterlimit="10"/>
<path d="M92.0111 15.2813C91.2736 16.0388 90.3573 16.4176 89.2611 16.4176C88.1648 16.4176 87.2486 16.0388 86.5124 15.2813C85.7749 14.5238 85.4073 13.5963 85.4073 12.5C85.4073 11.4038 85.7749 10.4763 86.5124 9.7188C87.2486 8.9613 88.1648 8.5813 89.2611 8.5813C90.3511 8.5813 91.2661 8.96255 92.0061 9.7238C92.7461 10.485 93.1161 11.41 93.1161 12.5C93.1161 13.5963 92.7474 14.5238 92.0111 15.2813ZM87.2236 14.6526C87.7786 15.2151 88.4573 15.4951 89.2611 15.4951C90.0648 15.4951 90.7449 15.2138 91.2986 14.6526C91.8536 14.0901 92.1324 13.3726 92.1324 12.5C92.1324 11.6275 91.8536 10.91 91.2986 10.3475C90.7449 9.78505 90.0648 9.50505 89.2611 9.50505C88.4573 9.50505 87.7786 9.7863 87.2236 10.3475C86.6699 10.91 86.3911 11.6275 86.3911 12.5C86.3911 13.3726 86.6699 14.0901 87.2236 14.6526Z" stroke="black" stroke-width="0.2" stroke-miterlimit="10"/>
<path d="M94.4686 16.25V8.75H95.6413L99.2863 14.5837H99.3274L99.2863 13.1387V8.75H100.25V16.25H99.2436L95.43 10.1325H95.3886L95.43 11.5775V16.25H94.4686Z" stroke="black" stroke-width="0.2" stroke-miterlimit="10"/>
<path fill-rule="evenodd" clip-rule="evenodd" d="M32.3185 17.7905L17.9165 9.43831C17.3726 9.11256 16.7379 8.92456 16.0586 8.92456C14.6573 8.92456 13.4248 9.77366 12.8336 10.9606L12.9419 11.0689L25.9919 24.116L32.3185 17.7905ZM12.4662 12.3609C12.4638 12.4138 12.4625 12.4669 12.4625 12.5202V37.4797C12.4625 37.5331 12.4638 37.5862 12.4662 37.639L25.1079 24.9999L12.4662 12.3609ZM12.8336 39.0392C13.4249 40.2262 14.6575 41.0754 16.0586 41.0754C16.7233 41.0754 17.3473 40.8957 17.8824 40.5802L17.9249 40.5554L32.3433 32.2337L25.9919 25.8836L12.9419 38.9311L12.8336 39.0392ZM33.4643 31.5867L39.3355 28.198C40.4634 27.5891 41.229 26.4001 41.229 25.029C41.229 23.6677 40.4736 22.4846 39.357 21.8737L39.3443 21.865L33.4375 18.4395L26.8759 24.9999L33.4643 31.5867Z" fill="black"/>
<path d="M162.5 0.625H6.25C3.1434 0.625 0.625 3.1434 0.625 6.25V43.75C0.625 46.8566 3.1434 49.375 6.25 49.375H162.5C165.607 49.375 168.125 46.8566 168.125 43.75V6.25C168.125 3.1434 165.607 0.625 162.5 0.625Z" stroke="black"/>
</g>
<defs>
<clipPath id="clip0_45_43">
<rect width="168.75" height="50" fill="white"/>
</clipPath>
</defs>
</svg>
