<svg width="168" height="50" viewBox="0 0 168 50" fill="none" xmlns="http://www.w3.org/2000/svg">
<g clip-path="url(#clip0_45_88)">
<path d="M159.274 0.625H9.22555C4.89136 0.625 1.37781 4.12278 1.37781 8.4375V41.5625C1.37781 45.8772 4.89136 49.375 9.22555 49.375H159.274C163.609 49.375 167.122 45.8772 167.122 41.5625V8.4375C167.122 4.12278 163.609 0.625 159.274 0.625Z" fill="white"/>
<path d="M57.7513 31.7646H62.1407L60.5692 27.5769C60.353 26.9983 60.1403 26.3594 59.9307 25.6595C59.7415 26.2786 59.5353 26.9108 59.3123 27.5566L57.7513 31.7646ZM62.8907 33.7526H57.0113L55.5722 37.668H52.9872L58.7448 23.046H61.1878L67.0772 37.668H64.3606L62.8907 33.7526Z" fill="black"/>
<path d="M74.7025 35.009C75.2128 34.3263 75.468 33.3288 75.468 32.0169C75.468 30.7995 75.2566 29.9163 74.8344 29.3679C74.4118 28.8196 73.8493 28.5456 73.1465 28.5456C72.66 28.5456 72.2106 28.6601 71.7985 28.8886C71.3863 29.1174 70.9941 29.4234 70.6224 29.8069V35.6398C70.8726 35.7606 71.1633 35.8566 71.4944 35.927C71.8256 35.998 72.1533 36.0334 72.4775 36.0334C73.4509 36.0334 74.1922 35.6916 74.7025 35.009ZM68.119 29.4438C68.119 28.6365 68.0918 27.7483 68.038 26.7798H70.3894C70.4772 27.2305 70.5381 27.6914 70.572 28.1621C71.545 27.1061 72.66 26.5778 73.917 26.5778C74.6469 26.5778 75.3227 26.7611 75.9445 27.1276C76.5659 27.4944 77.0678 28.0729 77.4495 28.8633C77.8316 29.6539 78.0224 30.6583 78.0224 31.8756C78.0224 33.1471 77.8045 34.2338 77.3685 35.135C76.9325 36.0368 76.3228 36.7193 75.5389 37.1838C74.755 37.6476 73.8493 37.8799 72.8223 37.8799C72.0787 37.8799 71.3454 37.7554 70.6224 37.5066V42.007L68.119 42.219V29.4438Z" fill="black"/>
<path d="M86.1254 35.009C86.6357 34.3263 86.8908 33.3288 86.8908 32.0169C86.8908 30.7995 86.6795 29.9163 86.2574 29.3679C85.8347 28.8196 85.2722 28.5456 84.5694 28.5456C84.0828 28.5456 83.6336 28.6601 83.2213 28.8886C82.8089 29.1174 82.4171 29.4234 82.0454 29.8069V35.6398C82.2956 35.7606 82.5859 35.8566 82.9173 35.927C83.2481 35.998 83.5759 36.0334 83.9004 36.0334C84.8734 36.0334 85.6151 35.6916 86.1254 35.009ZM79.5414 29.4438C79.5414 28.6365 79.5143 27.7483 79.4604 26.7798H81.8124C81.9 27.2305 81.9611 27.6914 81.9948 28.1621C82.9678 27.1061 84.0828 26.5778 85.3398 26.5778C86.0698 26.5778 86.7452 26.7611 87.3673 27.1276C87.9887 27.4944 88.4906 28.0729 88.8727 28.8633C89.2541 29.6539 89.4453 30.6583 89.4453 31.8756C89.4453 33.1471 89.2269 34.2338 88.7914 35.135C88.3554 36.0368 87.7453 36.7193 86.9618 37.1838C86.1776 37.6476 85.2722 37.8799 84.2449 37.8799C83.5016 37.8799 82.7683 37.7554 82.0454 37.5066V42.007L79.5414 42.219V29.4438Z" fill="black"/>
<path d="M94.0446 36.9768C92.9631 36.3816 92.132 35.5286 91.5511 34.4186C90.9695 33.3086 90.6792 31.9968 90.6792 30.483C90.6792 28.8418 91.0137 27.4473 91.6827 26.3001C92.3517 25.1534 93.2624 24.2922 94.4142 23.7169C95.5668 23.1417 96.8589 22.8541 98.292 22.8541C99.1364 22.8541 99.9424 22.9468 100.709 23.1316C101.476 23.3168 102.191 23.5706 102.854 23.8936L102.215 25.8108C100.883 25.1785 99.6129 24.8622 98.4035 24.8622C97.3829 24.8622 96.4893 25.0793 95.7225 25.5133C94.9554 25.9473 94.3587 26.5846 93.9332 27.4255C93.5073 28.2665 93.2946 29.2822 93.2946 30.4729C93.2946 31.516 93.4583 32.4408 93.7858 33.248C94.1139 34.0554 94.6309 34.6946 95.3371 35.1654C96.0433 35.6364 96.9335 35.8716 98.0081 35.8716C98.4945 35.8716 98.9811 35.8314 99.4677 35.7506C99.9542 35.67 100.411 35.5524 100.836 35.3974V32.4408H97.4406V30.5032H103.269V36.659C102.431 37.049 101.551 37.3488 100.629 37.557C99.7057 37.7654 98.7886 37.8696 97.8761 37.8696C96.4029 37.8696 95.1254 37.5724 94.0446 36.9768Z" fill="black"/>
<path d="M110.666 35.6496C111.186 35.401 111.612 35.0913 111.943 34.7214V32.7031C111.261 32.6293 110.703 32.5923 110.271 32.5923C109.237 32.5923 108.522 32.7585 108.127 33.0918C107.731 33.4244 107.534 33.8738 107.534 34.4386C107.534 34.9774 107.678 35.3756 107.965 35.6346C108.252 35.8936 108.642 36.023 109.135 36.023C109.635 36.023 110.146 35.8988 110.666 35.6496ZM112.166 37.668C112.078 37.244 112.021 36.7633 111.994 36.225C111.609 36.6826 111.107 37.071 110.488 37.3906C109.871 37.71 109.173 37.8696 108.395 37.8696C107.767 37.8696 107.194 37.747 106.677 37.5013C106.161 37.256 105.75 36.8859 105.446 36.3913C105.142 35.897 104.99 35.2934 104.99 34.5799C104.99 33.524 105.371 32.6813 106.135 32.0521C106.899 31.4231 108.172 31.1088 109.956 31.1088C110.625 31.1088 111.288 31.156 111.943 31.25V31.0381C111.943 30.0761 111.737 29.3984 111.325 29.0046C110.913 28.6114 110.321 28.4145 109.551 28.4145C109.017 28.4145 108.446 28.4919 107.838 28.6465C107.23 28.8014 106.696 28.9864 106.236 29.2016L105.841 27.3851C106.287 27.1833 106.875 26.9983 107.605 26.8301C108.335 26.6621 109.105 26.5778 109.916 26.5778C110.862 26.5778 111.666 26.7208 112.328 27.0065C112.991 27.2926 113.508 27.7839 113.879 28.4799C114.251 29.1764 114.437 30.1133 114.437 31.2904V35.6193C114.437 36.0703 114.464 36.7534 114.518 37.668H112.166Z" fill="black"/>
<path d="M116.358 35.0542V22.1881L118.851 21.9863V34.6102C118.851 35.0746 118.931 35.4023 119.089 35.5942C119.248 35.7856 119.5 35.882 119.845 35.882C120 35.882 120.22 35.8451 120.503 35.771L120.797 37.557C120.561 37.6512 120.272 37.727 119.931 37.784C119.59 37.841 119.267 37.8696 118.963 37.8696C117.226 37.8696 116.358 36.9313 116.358 35.0542Z" fill="black"/>
<path d="M122.592 35.0542V22.1881L125.085 21.9863V34.6102C125.085 35.0746 125.165 35.4023 125.323 35.5942C125.483 35.7856 125.734 35.882 126.079 35.882C126.234 35.882 126.453 35.8451 126.738 35.771L127.032 37.557C126.795 37.6512 126.506 37.727 126.165 37.784C125.824 37.841 125.501 37.8696 125.197 37.8696C123.46 37.8696 122.592 36.9313 122.592 35.0542Z" fill="black"/>
<path d="M134.846 30.9574C134.796 30.0896 134.577 29.4388 134.185 29.0046C133.794 28.571 133.269 28.3538 132.616 28.3538C131.979 28.3538 131.451 28.5726 131.029 29.0098C130.607 29.4473 130.328 30.0964 130.201 30.9574H134.846ZM137.287 32.5416H130.131C130.245 34.8224 131.336 35.9626 133.406 35.9626C133.918 35.9626 134.444 35.9004 134.983 35.776C135.519 35.6513 136.034 35.485 136.526 35.2763L137.076 36.9816C135.85 37.574 134.477 37.8696 132.95 37.8696C131.785 37.8696 130.808 37.6513 130.01 37.2139C129.211 36.7768 128.61 36.1476 128.209 35.3268C127.808 34.5064 127.607 33.5174 127.607 32.36C127.607 31.156 127.819 30.1198 128.246 29.252C128.671 28.3841 129.263 27.7216 130.024 27.2641C130.784 26.8066 131.662 26.5778 132.656 26.5778C133.691 26.5778 134.551 26.8184 135.244 27.2995C135.937 27.7803 136.449 28.4213 136.785 29.2216C137.119 30.0225 137.287 30.9069 137.287 31.8756V32.5416Z" fill="black"/>
<path d="M139.182 29.5144C139.182 28.9158 139.152 28.0043 139.098 26.7798H141.442C141.482 27.0825 141.518 27.444 141.559 27.8646C141.596 28.2849 141.619 28.6263 141.633 28.8886C141.924 28.4111 142.209 28.0091 142.49 27.683C142.772 27.3564 143.099 27.0909 143.475 26.8854C143.849 26.6804 144.275 26.5778 144.757 26.5778C145.142 26.5778 145.47 26.6183 145.747 26.699L145.433 28.8585C145.192 28.7845 144.921 28.7474 144.622 28.7474C144.037 28.7474 143.521 28.8971 143.083 29.1966C142.643 29.4958 142.175 29.9885 141.673 30.6748V37.668H139.182V29.5144Z" fill="black"/>
<path d="M147.154 42.123C146.79 42.0594 146.488 41.987 146.253 41.9064L146.709 40.09C146.876 40.1368 147.091 40.1823 147.348 40.226C147.603 40.2702 147.847 40.2917 148.078 40.2917C149.187 40.2917 150.017 39.5817 150.569 38.1624L150.734 37.7588L146.699 26.7798H149.384L151.413 32.915C151.742 33.9648 151.955 34.7687 152.049 35.3268C152.24 34.5398 152.461 33.7527 152.719 32.9655L154.778 26.7798H157.299L153.279 37.8094C152.9 38.852 152.488 39.6928 152.049 40.332C151.611 40.971 151.091 41.4453 150.496 41.7549C149.896 42.0642 149.177 42.219 148.329 42.219C147.911 42.219 147.519 42.1874 147.154 42.123Z" fill="black"/>
<path d="M52.9762 9.12634H57.439L57.3134 10.1993H54.2841V12.2773H57.1406V13.2826H54.2841V15.5846H57.4754L57.3657 16.668H52.9762V9.12634Z" fill="black"/>
<path d="M60.515 12.819L58.1608 9.12634H59.6465L61.2422 11.84L62.9218 9.12634H64.3656L62.0322 12.772L64.5591 16.668H63.0524L61.2476 13.6994L59.411 16.668H57.9673L60.515 12.819Z" fill="black"/>
<path d="M68.8022 12.4933C69.0812 12.242 69.2208 11.8867 69.2208 11.4283C69.2208 10.963 69.0784 10.6283 68.7945 10.4233C68.5103 10.2183 68.0924 10.116 67.5415 10.116H66.8301V12.793C67.1578 12.845 67.4089 12.871 67.5835 12.871C68.1169 12.871 68.5233 12.7454 68.8022 12.4933ZM65.5219 9.12634H67.5624C68.5213 9.12634 69.2556 9.32102 69.7649 9.70968C70.2742 10.0987 70.5287 10.661 70.5287 11.397C70.5287 11.897 70.4144 12.334 70.1862 12.707C69.9574 13.0804 69.6393 13.367 69.2311 13.5664C68.8233 13.7664 68.3538 13.866 67.8238 13.866C67.5345 13.866 67.203 13.8314 66.8301 13.7616V16.668H65.5219V9.12634Z" fill="black"/>
<path d="M71.8212 9.12634H73.129V15.5534H76.2627L76.153 16.668H71.8212V9.12634Z" fill="black"/>
<path d="M81.6413 15.3736C82.0076 15.129 82.2812 14.7924 82.4626 14.3634C82.6442 13.9346 82.7348 13.444 82.7348 12.892C82.7348 12.3503 82.6545 11.868 82.4941 11.444C82.3334 11.0203 82.0773 10.683 81.7249 10.431C81.3727 10.1793 80.9194 10.0533 80.3646 10.0533C79.8346 10.0533 79.3846 10.181 79.0149 10.4363C78.6452 10.6913 78.3679 11.0336 78.183 11.4623C77.9982 11.8913 77.9059 12.3643 77.9059 12.8816C77.9059 13.4266 77.9929 13.9146 78.1673 14.345C78.3415 14.7756 78.6083 15.116 78.9679 15.366C79.3269 15.616 79.7715 15.741 80.3019 15.741C80.8287 15.741 81.275 15.6184 81.6413 15.3736ZM78.2511 16.2984C77.6966 15.9824 77.2727 15.5386 76.9798 14.9674C76.6867 14.3964 76.5404 13.7324 76.5404 12.9754C76.5404 12.1803 76.6961 11.485 77.0085 10.8893C77.3205 10.294 77.7706 9.83397 78.3582 9.50897C78.9458 9.18464 79.6389 9.02197 80.4379 9.02197C81.2017 9.02197 81.8593 9.17931 82.4104 9.49331C82.9612 9.80797 83.3818 10.2496 83.6711 10.819C83.9607 11.3886 84.1054 12.0483 84.1054 12.7984C84.1054 13.6074 83.9477 14.3106 83.6319 14.9076C83.3162 15.5046 82.8664 15.965 82.2822 16.2876C81.6979 16.6106 81.0119 16.7721 80.2236 16.7721C79.4632 16.7721 78.8056 16.6144 78.2511 16.2984Z" fill="black"/>
<path d="M87.6161 12.694C87.9333 12.694 88.2142 12.6326 88.4583 12.509C88.7024 12.386 88.8925 12.2123 89.0285 11.9883C89.1647 11.7643 89.2328 11.5047 89.2328 11.2097C89.2328 10.8313 89.1122 10.5543 88.8718 10.379C88.6311 10.2037 88.2805 10.116 87.8201 10.116H86.8732V12.694H87.6161ZM85.5653 9.12634H87.9352C88.8001 9.12634 89.4551 9.29834 89.8998 9.64202C90.3444 9.98568 90.5668 10.4773 90.5668 11.116C90.5668 11.5153 90.4864 11.867 90.3259 12.1707C90.1656 12.4747 89.9667 12.722 89.7296 12.9126C89.4923 13.1036 89.2485 13.246 88.9973 13.34L91.3254 16.668H89.8084L87.8358 13.6784H86.8732V16.668H85.5653V9.12634Z" fill="black"/>
<path d="M92.3615 9.12634H96.8241L96.6986 10.1993H93.6693V12.2773H96.5258V13.2826H93.6693V15.5846H96.8607L96.7508 16.668H92.3615V9.12634Z" fill="black"/>
<path d="M101.679 9.12634H102.987V16.668H101.679V9.12634Z" fill="black"/>
<path d="M106.445 10.215H104.096L104.211 9.12634H110.108L109.987 10.215H107.753V16.668H106.445V10.215Z" fill="black"/>
<path d="M119.175 15.3736C119.541 15.129 119.814 14.7924 119.996 14.3634C120.177 13.9346 120.268 13.444 120.268 12.892C120.268 12.3503 120.187 11.868 120.027 11.444C119.867 11.0203 119.61 10.683 119.258 10.431C118.906 10.1793 118.452 10.0533 117.898 10.0533C117.368 10.0533 116.918 10.181 116.548 10.4363C116.178 10.6913 115.901 11.0336 115.716 11.4623C115.531 11.8913 115.439 12.3643 115.439 12.8816C115.439 13.4266 115.526 13.9146 115.701 14.345C115.875 14.7756 116.142 15.116 116.501 15.366C116.86 15.616 117.305 15.741 117.835 15.741C118.362 15.741 118.808 15.6184 119.175 15.3736ZM115.784 16.2984C115.23 15.9824 114.806 15.5386 114.513 14.9674C114.22 14.3964 114.073 13.7324 114.073 12.9754C114.073 12.1803 114.229 11.485 114.542 10.8893C114.853 10.294 115.304 9.83397 115.892 9.50897C116.479 9.18464 117.172 9.02197 117.971 9.02197C118.735 9.02197 119.392 9.17931 119.944 9.49331C120.494 9.80797 120.915 10.2496 121.204 10.819C121.494 11.3886 121.639 12.0483 121.639 12.7984C121.639 13.6074 121.481 14.3106 121.165 14.9076C120.849 15.5046 120.399 15.965 119.815 16.2876C119.231 16.6106 118.545 16.7721 117.757 16.7721C116.996 16.7721 116.339 16.6144 115.784 16.2984Z" fill="black"/>
<path d="M123.098 9.12634H124.6L128.347 14.97C128.313 14.4146 128.299 13.9024 128.299 13.4336V9.12634H129.512V16.668H128.058L124.255 10.7303C124.293 11.4043 124.312 12.0013 124.312 12.522V16.668H123.098V9.12634Z" fill="black"/>
<path d="M25.5969 27.5319H26.8727L26.2327 26.0505L25.5969 27.5319Z" fill="black"/>
<path fill-rule="evenodd" clip-rule="evenodd" d="M34.5793 9.16663H20.6688C14.116 9.16663 11.7192 11.5526 11.7192 18.076V31.9242C11.7192 38.4473 14.116 40.8333 20.6688 40.8333H34.5749C41.1277 40.8333 43.5287 38.4473 43.5287 31.9242V18.076C43.5287 11.5526 41.1319 9.16663 34.5793 9.16663ZM25.2828 28.2786L24.9044 29.1406H24.0428L25.8752 25.0027H26.6195L28.4443 29.1406H27.5597L27.1861 28.2786H25.2828ZM39.146 29.1377H39.9788V25.0027H39.146V29.1377ZM35.8321 27.3608H37.3667V26.6073H35.8321V25.7597H38.0599V25.0053H34.9998V29.1402H38.1401V28.386H35.8321V27.3608ZM32.5237 27.8496L31.5794 25.0026H30.891L29.9467 27.8496L29.028 25.0046H28.1299L29.5794 29.1426H30.2778L31.2234 26.4245L32.1687 29.1426H32.8735L34.3193 25.0046H33.4444L32.5237 27.8496ZM22.7719 27.3723C22.7719 28.0456 22.436 28.4052 21.8262 28.4052C21.2132 28.4052 20.8757 28.0353 20.8757 27.3437V25.0051H20.0318V27.3723C20.0318 28.5371 20.6817 29.2048 21.8148 29.2048C22.959 29.2048 23.6153 28.5243 23.6153 27.3381V25.0026H22.7719V27.3723ZM18.0185 25.0027H18.8619V29.1428H18.0185V27.4616H16.113V29.1428H15.2692V25.0027H16.113V26.6728H18.0185V25.0027ZM22.3293 14.4603C22.3293 17.3666 24.7045 19.7313 27.624 19.7313C30.5434 19.7313 32.9188 17.3666 32.9188 14.4603H32.1707C32.1707 16.9561 30.1313 18.9867 27.624 18.9867C25.1168 18.9867 23.0772 16.9561 23.0772 14.4603H22.3293Z" fill="black"/>
<path d="M159.274 0.625H9.22555C4.89136 0.625 1.37781 4.12278 1.37781 8.4375V41.5625C1.37781 45.8772 4.89136 49.375 9.22555 49.375H159.274C163.609 49.375 167.122 45.8772 167.122 41.5625V8.4375C167.122 4.12278 163.609 0.625 159.274 0.625Z" stroke="black"/>
</g>
<defs>
<clipPath id="clip0_45_88">
<rect width="167" height="50" fill="white" transform="translate(0.75)"/>
</clipPath>
</defs>
</svg>
