<svg width="7" height="12" viewBox="0 0 7 12" fill="none" xmlns="http://www.w3.org/2000/svg">
<path fill-rule="evenodd" clip-rule="evenodd" d="M0.29289 11.7071C-0.09763 11.3166 -0.09763 10.6834 0.29289 10.2929L5.2929 5.29287C5.6834 4.90237 6.3166 4.90237 6.7071 5.29287C7.0976 5.68338 7.0976 6.31657 6.7071 6.70707L1.7071 11.7071C1.3166 12.0976 0.68342 12.0976 0.29289 11.7071Z" fill="white"/>
<path fill-rule="evenodd" clip-rule="evenodd" d="M6.7071 6.7071C6.3166 7.0976 5.6834 7.0976 5.2929 6.7071L0.29289 1.70711C-0.09763 1.31658 -0.09763 0.68342 0.29289 0.29289C0.68342 -0.09763 1.3166 -0.09763 1.7071 0.29289L6.7071 5.2929C7.0976 5.6834 7.0976 6.3166 6.7071 6.7071Z" fill="white"/>
</svg>
