<svg width="146" height="144" viewBox="0 0 146 144" fill="none" xmlns="http://www.w3.org/2000/svg">
<g filter="url(#filter0_f_327_119)">
<ellipse cx="51.6656" cy="77.5" rx="31.6656" ry="31.5" fill="#FEB48A"/>
</g>
<g filter="url(#filter1_f_327_119)">
<ellipse cx="78.8075" cy="116" rx="7.53942" ry="8" fill="url(#paint0_linear_327_119)"/>
</g>
<g filter="url(#filter2_f_327_119)">
<ellipse cx="4.03093" cy="4.02932" rx="4.03093" ry="4.02932" transform="matrix(-0.735361 -0.677676 0.68151 -0.731808 120.914 71.8989)" fill="url(#paint1_linear_327_119)"/>
</g>
<g filter="url(#filter3_f_327_119)">
<ellipse cx="107.96" cy="88" rx="17.592" ry="18" fill="#8ED881"/>
</g>
<g filter="url(#filter4_f_327_119)">
<path d="M98.4735 67.5036C100.526 71.6677 98.7892 76.8333 94.202 77.5816C90.4858 78.1879 86.6577 78.0654 82.9374 77.1896C76.4603 75.6649 70.7109 71.9514 66.6687 66.6817C62.6264 61.4121 60.5415 54.9124 60.7692 48.2902C60.9968 41.6679 63.5229 35.3328 67.9171 30.3643C72.3113 25.3958 78.3017 22.1012 84.8676 21.0421C91.4334 19.9829 98.1685 21.2246 103.925 24.5556C109.682 27.8866 114.104 33.1008 116.438 39.3098C117.779 42.8749 118.383 46.6412 118.248 50.3889C118.081 55.0208 113.155 57.3873 108.751 55.8843C101.652 53.4608 95.1638 60.7884 98.4735 67.5036Z" fill="#2EA0B9"/>
</g>
<g filter="url(#filter5_d_327_119)">
<ellipse cx="81.3207" cy="71" rx="26.1367" ry="26" fill="url(#paint2_linear_327_119)" shape-rendering="crispEdges"/>
<ellipse cx="81.3207" cy="71" rx="26.1367" ry="26" stroke="url(#paint3_linear_327_119)" shape-rendering="crispEdges"/>
</g>
<path fill-rule="evenodd" clip-rule="evenodd" d="M77.6334 66.6256C77.6334 64.6233 79.2566 63 81.259 63C83.2614 63 84.8847 64.6233 84.8847 66.6256C84.8847 68.628 83.2614 70.2513 81.259 70.2513C79.2566 70.2513 77.6334 68.628 77.6334 66.6256ZM77.7582 71.7521C75.2724 71.7521 73.2573 73.7672 73.2573 76.253C73.2573 77.772 74.4887 79.0034 76.0078 79.0034H86.5103C88.0293 79.0034 89.2607 77.772 89.2607 76.253C89.2607 73.7672 87.2456 71.7521 84.7599 71.7521H77.7582Z" fill="url(#paint4_linear_327_119)"/>
<defs>
<filter id="filter0_f_327_119" x="0" y="26" width="103.331" height="103" filterUnits="userSpaceOnUse" color-interpolation-filters="sRGB">
<feFlood flood-opacity="0" result="BackgroundImageFix"/>
<feBlend mode="normal" in="SourceGraphic" in2="BackgroundImageFix" result="shape"/>
<feGaussianBlur stdDeviation="10" result="effect1_foregroundBlur_327_119"/>
</filter>
<filter id="filter1_f_327_119" x="51.2681" y="88" width="55.0786" height="56" filterUnits="userSpaceOnUse" color-interpolation-filters="sRGB">
<feFlood flood-opacity="0" result="BackgroundImageFix"/>
<feBlend mode="normal" in="SourceGraphic" in2="BackgroundImageFix" result="shape"/>
<feGaussianBlur stdDeviation="10" result="effect1_foregroundBlur_327_119"/>
</filter>
<filter id="filter2_f_327_119" x="105.655" y="51.199" width="30.0815" height="30.0391" filterUnits="userSpaceOnUse" color-interpolation-filters="sRGB">
<feFlood flood-opacity="0" result="BackgroundImageFix"/>
<feBlend mode="normal" in="SourceGraphic" in2="BackgroundImageFix" result="shape"/>
<feGaussianBlur stdDeviation="5.5" result="effect1_foregroundBlur_327_119"/>
</filter>
<filter id="filter3_f_327_119" x="70.3682" y="50" width="75.1841" height="76" filterUnits="userSpaceOnUse" color-interpolation-filters="sRGB">
<feFlood flood-opacity="0" result="BackgroundImageFix"/>
<feBlend mode="normal" in="SourceGraphic" in2="BackgroundImageFix" result="shape"/>
<feGaussianBlur stdDeviation="10" result="effect1_foregroundBlur_327_119"/>
</filter>
<filter id="filter4_f_327_119" x="40.7524" y="0.673828" width="97.5142" height="97.2844" filterUnits="userSpaceOnUse" color-interpolation-filters="sRGB">
<feFlood flood-opacity="0" result="BackgroundImageFix"/>
<feBlend mode="normal" in="SourceGraphic" in2="BackgroundImageFix" result="shape"/>
<feGaussianBlur stdDeviation="10" result="effect1_foregroundBlur_327_119"/>
</filter>
<filter id="filter5_d_327_119" x="50.6841" y="40.5" width="61.2734" height="61" filterUnits="userSpaceOnUse" color-interpolation-filters="sRGB">
<feFlood flood-opacity="0" result="BackgroundImageFix"/>
<feColorMatrix in="SourceAlpha" type="matrix" values="0 0 0 0 0 0 0 0 0 0 0 0 0 0 0 0 0 0 127 0" result="hardAlpha"/>
<feMorphology radius="2" operator="erode" in="SourceAlpha" result="effect1_dropShadow_327_119"/>
<feOffset/>
<feGaussianBlur stdDeviation="3"/>
<feComposite in2="hardAlpha" operator="out"/>
<feColorMatrix type="matrix" values="0 0 0 0 0 0 0 0 0 0 0 0 0 0 0 0 0 0 0.25 0"/>
<feBlend mode="normal" in2="BackgroundImageFix" result="effect1_dropShadow_327_119"/>
<feBlend mode="normal" in="SourceGraphic" in2="effect1_dropShadow_327_119" result="shape"/>
</filter>
<linearGradient id="paint0_linear_327_119" x1="72.776" y1="108" x2="86.9807" y2="118.908" gradientUnits="userSpaceOnUse">
<stop stop-color="#2EA0B9"/>
<stop offset="1" stop-color="#8ED881"/>
</linearGradient>
<linearGradient id="paint1_linear_327_119" x1="0.806187" y1="-1.11277e-07" x2="8.05955" y2="5.91251" gradientUnits="userSpaceOnUse">
<stop stop-color="#8ED881"/>
<stop offset="1" stop-color="#FE9E69"/>
</linearGradient>
<linearGradient id="paint2_linear_327_119" x1="59.3659" y1="49.68" x2="97.8323" y2="90.9612" gradientUnits="userSpaceOnUse">
<stop stop-color="white"/>
<stop offset="1" stop-color="white" stop-opacity="0.2"/>
</linearGradient>
<linearGradient id="paint3_linear_327_119" x1="74.2839" y1="45" x2="85.2313" y2="97.0232" gradientUnits="userSpaceOnUse">
<stop offset="0.151037" stop-color="#2EA0B9" stop-opacity="0.6"/>
<stop offset="0.593767" stop-color="#B5E6AD"/>
<stop offset="0.973994" stop-color="#FDC1A1" stop-opacity="0.2"/>
</linearGradient>
<linearGradient id="paint4_linear_327_119" x1="73.6841" y1="63.1958" x2="84.2891" y2="78.9329" gradientUnits="userSpaceOnUse">
<stop stop-color="#17292D"/>
<stop offset="1" stop-color="#17292D" stop-opacity="0.7"/>
</linearGradient>
</defs>
</svg>
