<svg width="24" height="24" viewBox="0 0 24 24" fill="none" xmlns="http://www.w3.org/2000/svg">
<path d="M11.9999 13.6155C14.2303 13.6155 16.0384 11.8074 16.0384 9.57704C16.0384 7.34666 14.2303 5.53857 11.9999 5.53857C9.76951 5.53857 7.96143 7.34666 7.96143 9.57704C7.96143 11.8074 9.76951 13.6155 11.9999 13.6155Z" stroke="#17292D" stroke-linecap="round" stroke-linejoin="round"/>
<path d="M5.10254 19.9155C5.82339 18.7322 6.83651 17.7543 8.04449 17.0758C9.25247 16.3972 10.6147 16.0408 12.0002 16.0408C13.3858 16.0408 14.748 16.3972 15.956 17.0758C17.164 17.7543 18.1771 18.7322 18.8979 19.9155" stroke="#17292D" stroke-linecap="round" stroke-linejoin="round"/>
<path d="M12 22.5C17.799 22.5 22.5 17.799 22.5 12C22.5 6.20101 17.799 1.5 12 1.5C6.20101 1.5 1.5 6.20101 1.5 12C1.5 17.799 6.20101 22.5 12 22.5Z" stroke="#17292D" stroke-linecap="round" stroke-linejoin="round"/>
</svg>
