<svg width="16" height="16" viewBox="0 0 16 16" fill="none" xmlns="http://www.w3.org/2000/svg">
<g clip-path="url(#clip0_323_10)">
<mask id="mask0_323_10" style="mask-type:luminance" maskUnits="userSpaceOnUse" x="0" y="0" width="16" height="16">
<path d="M16 0H0V16H16V0Z" fill="white"/>
</mask>
<g mask="url(#mask0_323_10)">
<path fill-rule="evenodd" clip-rule="evenodd" d="M6.19526 11.8046C5.93491 11.5443 5.93491 11.1222 6.19526 10.8618L9.5286 7.5285C9.78893 7.26817 10.2111 7.26817 10.4714 7.5285C10.7317 7.78884 10.7317 8.21097 10.4714 8.4713L7.13807 11.8046C6.87773 12.065 6.45561 12.065 6.19526 11.8046Z" fill="white"/>
<path fill-rule="evenodd" clip-rule="evenodd" d="M10.4714 8.4714C10.2111 8.73173 9.78893 8.73173 9.5286 8.4714L6.19526 5.13807C5.93491 4.87772 5.93491 4.45561 6.19526 4.19526C6.45561 3.93491 6.87773 3.93491 7.13807 4.19526L10.4714 7.5286C10.7317 7.78893 10.7317 8.21107 10.4714 8.4714Z" fill="white"/>
</g>
</g>
<defs>
<clipPath id="clip0_323_10">
<rect width="16" height="16" fill="white"/>
</clipPath>
</defs>
</svg>
