<svg width="76" height="24" viewBox="0 0 76 24" fill="none" xmlns="http://www.w3.org/2000/svg">
<path d="M71.8487 0H4.15126C1.85858 0 0 1.79086 0 4V20C0 22.2091 1.85858 24 4.15126 24H71.8487C74.1414 24 76 22.2091 76 20V4C76 1.79086 74.1414 0 71.8487 0Z" fill="white"/>
<path d="M51.9448 11.5198V12.9745H50.9932V13.9286H51.9448V17.1702C51.9448 18.277 52.4673 18.7198 53.7819 18.7198C54.0129 18.7198 54.2329 18.6934 54.4254 18.6618V17.7183C54.2604 17.7341 54.1559 17.7446 53.9744 17.7446C53.3859 17.7446 53.1273 17.4811 53.1273 16.8802V13.9286H54.4254V12.9745H53.1273V11.5198H51.9448Z" fill="black"/>
<path d="M57.6154 18.7204C59.2854 18.7204 60.3096 17.6357 60.3096 15.8379C60.3096 14.0503 59.2802 12.9604 57.6154 12.9604C55.9453 12.9604 54.916 14.0503 54.916 15.8379C54.916 17.6357 55.9401 18.7204 57.6154 18.7204ZM57.6154 17.7477C56.6333 17.7477 56.0819 17.05 56.0819 15.8379C56.0819 14.636 56.6333 13.9332 57.6154 13.9332C58.5922 13.9332 59.1489 14.636 59.1489 15.8379C59.1489 17.0449 58.5922 17.7477 57.6154 17.7477Z" fill="black"/>
<path d="M60.7993 18.7204H62.0031V15.3748C62.0031 14.5787 62.647 14.0427 63.5597 14.0427C63.7722 14.0427 64.1311 14.0792 64.2316 14.1104V13.0073C64.1027 12.9761 63.8734 12.9604 63.694 12.9604C62.899 12.9604 62.2215 13.3663 62.0479 13.9231H61.9583V13.0541H60.7993V18.7204Z" fill="black"/>
<path d="M66.9665 13.8925C67.8346 13.8925 68.4022 14.4577 68.4298 15.3286H65.4269C65.4927 14.4628 66.0984 13.8925 66.9665 13.8925ZM68.4246 17.1162C68.2062 17.5491 67.7202 17.7885 67.0106 17.7885C66.0714 17.7885 65.4657 17.1723 65.4269 16.1995V16.1384H69.6255V15.7564C69.6255 14.0147 68.6265 12.9604 66.9724 12.9604C65.296 12.9604 64.2319 14.086 64.2319 15.8583C64.2319 17.6306 65.2743 18.7204 66.9777 18.7204C68.3371 18.7204 69.2868 18.1093 69.5545 17.1162H68.4246Z" fill="black"/>
<path d="M44.1284 16.4382C44.2205 17.8297 45.4585 18.7196 47.3011 18.7196C49.2704 18.7196 50.5026 17.7865 50.5026 16.298C50.5026 15.1277 49.8001 14.4804 48.0957 14.1083L47.1802 13.898C46.0977 13.6607 45.66 13.3425 45.66 12.787C45.66 12.0859 46.3395 11.6274 47.3587 11.6274C48.326 11.6274 48.994 12.0751 49.1149 12.7923H50.3702C50.2953 11.4818 49.0631 10.5596 47.376 10.5596C45.5622 10.5596 44.353 11.4818 44.353 12.8679C44.353 14.0112 45.0382 14.6908 46.5411 15.0198L47.612 15.2625C48.7118 15.5052 49.1955 15.8611 49.1955 16.4544C49.1955 17.1448 48.4354 17.6463 47.399 17.6463C46.2877 17.6463 45.5161 17.1771 45.4067 16.4382H44.1284Z" fill="black"/>
<path d="M32.4158 12.9604C31.6309 12.9604 30.9521 13.3232 30.6021 13.9309H30.5173V13.0487H29.4194V20.1604H30.5597V17.5775H30.6498C30.9521 18.1411 31.6044 18.4744 32.4265 18.4744C33.8849 18.4744 34.813 17.4108 34.813 15.715C34.813 14.0191 33.8849 12.9604 32.4158 12.9604ZM32.0923 17.5284C31.1378 17.5284 30.5385 16.8324 30.5385 15.7199C30.5385 14.6024 31.1378 13.9064 32.0976 13.9064C33.0628 13.9064 33.6409 14.5877 33.6409 15.715C33.6409 16.8471 33.0628 17.5284 32.0923 17.5284Z" fill="black"/>
<path d="M38.7898 12.9604C38.005 12.9604 37.3261 13.3232 36.9761 13.9309H36.8913V13.0487H35.7935V20.1604H36.9337V17.5775H37.0239C37.3261 18.1411 37.9784 18.4744 38.8005 18.4744C40.2589 18.4744 41.187 17.4108 41.187 15.715C41.187 14.0191 40.2589 12.9604 38.7898 12.9604ZM38.4664 17.5284C37.5118 17.5284 36.9125 16.8324 36.9125 15.7199C36.9125 14.6024 37.5118 13.9064 38.4717 13.9064C39.4369 13.9064 40.0149 14.5877 40.0149 15.715C40.0149 16.8471 39.4369 17.5284 38.4664 17.5284Z" fill="black"/>
<path d="M27.5647 18.7196H28.9291L25.9424 10.5596H24.5609L21.5742 18.7196H22.8927L23.6551 16.5537H26.808L27.5647 18.7196ZM25.1857 12.0411H25.2832L26.4813 15.4906H23.9819L25.1857 12.0411Z" fill="black"/>
<path d="M22.5547 4.7998V8.6398H24.0449C25.2747 8.6398 25.9869 7.93458 25.9869 6.70783C25.9869 5.49967 25.269 4.7998 24.0449 4.7998H22.5547ZM23.1954 5.34267H23.9734C24.8286 5.34267 25.3348 5.84828 25.3348 6.71578C25.3348 7.59662 24.8371 8.09693 23.9734 8.09693H23.1954V5.34267Z" fill="black"/>
<path d="M27.7041 8.63977C28.4632 8.63977 28.9287 8.0974 28.9287 7.19851C28.9287 6.30471 28.4608 5.75977 27.7041 5.75977C26.945 5.75977 26.4771 6.30471 26.4771 7.19851C26.4771 8.0974 26.9425 8.63977 27.7041 8.63977ZM27.7041 8.15342C27.2577 8.15342 27.007 7.80456 27.007 7.19851C27.007 6.59755 27.2577 6.24612 27.7041 6.24612C28.1481 6.24612 28.4011 6.59755 28.4011 7.19851C28.4011 7.80198 28.1481 8.15342 27.7041 8.15342Z" fill="black"/>
<path d="M33.342 5.75977H32.7831L32.2789 7.95746H32.2346L31.6524 5.75977H31.1169L30.5346 7.95746H30.493L29.9861 5.75977H29.4194L30.1993 8.63977H30.7738L31.356 6.51873H31.4002L31.9851 8.63977H32.5648L33.342 5.75977Z" fill="black"/>
<path d="M34.3223 8.63977H34.8921V6.98703C34.8921 6.54594 35.1598 6.27088 35.5812 6.27088C36.0027 6.27088 36.2041 6.49661 36.2041 6.95065V8.63977H36.7739V6.81056C36.7739 6.1386 36.4188 5.75977 35.7747 5.75977C35.3401 5.75977 35.0538 5.94918 34.9133 6.26312H34.8709V5.81428H34.3223V8.63977Z" fill="black"/>
<path d="M37.7544 8.6398H38.2447V4.7998H37.7544V8.6398Z" fill="black"/>
<path d="M40.2083 8.63977C41.1192 8.63977 41.6778 8.0974 41.6778 7.19851C41.6778 6.30471 41.1164 5.75977 40.2083 5.75977C39.2973 5.75977 38.7358 6.30471 38.7358 7.19851C38.7358 8.0974 39.2944 8.63977 40.2083 8.63977ZM40.2083 8.15342C39.6726 8.15342 39.3718 7.80456 39.3718 7.19851C39.3718 6.59755 39.6726 6.24612 40.2083 6.24612C40.7411 6.24612 41.0447 6.59755 41.0447 7.19851C41.0447 7.80198 40.7411 8.15342 40.2083 8.15342Z" fill="black"/>
<path d="M43.2892 8.1776C42.9753 8.1776 42.7473 8.03211 42.7473 7.78186C42.7473 7.53678 42.9297 7.40655 43.3321 7.38102L44.0456 7.33765V7.56994C44.0456 7.91461 43.7237 8.1776 43.2892 8.1776ZM43.1416 8.63977C43.5252 8.63977 43.8444 8.48142 44.0188 8.20312H44.0643V8.59381H44.6196V6.69426C44.6196 6.10702 44.2065 5.75977 43.4742 5.75977C42.8117 5.75977 42.3396 6.06618 42.2806 6.5436H42.8385C42.9029 6.347 43.1255 6.23467 43.4474 6.23467C43.8417 6.23467 44.0456 6.40064 44.0456 6.69426V6.93423L43.2543 6.97766C42.5596 7.01851 42.168 7.30702 42.168 7.80739C42.168 8.31551 42.5783 8.63977 43.1416 8.63977Z" fill="black"/>
<path d="M46.4174 8.6398C46.8513 8.6398 47.2186 8.46183 47.4067 8.16355H47.4559V8.59469H48.0518V4.7998H47.4298V6.2987H47.3835C47.2128 5.99789 46.8484 5.81997 46.4174 5.81997C45.6219 5.81997 45.1099 6.3664 45.1099 7.22862C45.1099 8.09338 45.6161 8.6398 46.4174 8.6398ZM46.5939 6.30371C47.1145 6.30371 47.4414 6.66214 47.4414 7.2311C47.4414 7.80259 47.1174 8.156 46.5939 8.156C46.0674 8.156 45.7521 7.8076 45.7521 7.22862C45.7521 6.65459 46.0702 6.30371 46.5939 6.30371Z" fill="black"/>
<path d="M51.7304 8.63977C52.4896 8.63977 52.955 8.0974 52.955 7.19851C52.955 6.30471 52.4871 5.75977 51.7304 5.75977C50.9713 5.75977 50.5034 6.30471 50.5034 7.19851C50.5034 8.0974 50.969 8.63977 51.7304 8.63977ZM51.7304 8.15342C51.284 8.15342 51.0334 7.80456 51.0334 7.19851C51.0334 6.59755 51.284 6.24612 51.7304 6.24612C52.1744 6.24612 52.4274 6.59755 52.4274 7.19851C52.4274 7.80198 52.1744 8.15342 51.7304 8.15342Z" fill="black"/>
<path d="M53.9351 8.63977H54.5049V6.98703C54.5049 6.54594 54.7726 6.27088 55.194 6.27088C55.6154 6.27088 55.8169 6.49661 55.8169 6.95065V8.63977H56.3867V6.81056C56.3867 6.1386 56.0315 5.75977 55.3875 5.75977C54.9528 5.75977 54.6666 5.94918 54.5261 6.26312H54.4837V5.81428H53.9351V8.63977Z" fill="black"/>
<path d="M58.7564 5.27979V5.95865H58.3486V6.40385H58.7564V7.91658C58.7564 8.43313 58.9804 8.63979 59.5438 8.63979C59.6428 8.63979 59.7371 8.62746 59.8196 8.6127V8.17242C59.7489 8.17977 59.7041 8.18469 59.6263 8.18469C59.3741 8.18469 59.2633 8.06172 59.2633 7.78134V6.40385H59.8196V5.95865H59.2633V5.27979H58.7564Z" fill="black"/>
<path d="M60.7993 8.6398H61.3619V7.02668C61.3619 6.6082 61.6183 6.32666 62.0788 6.32666C62.4764 6.32666 62.6884 6.54984 62.6884 6.99118V8.6398H63.2509V6.85673C63.2509 6.19986 62.8768 5.82703 62.2698 5.82703C61.8407 5.82703 61.5398 6.01213 61.4011 6.32159H61.3566V4.7998H60.7993V8.6398Z" fill="black"/>
<path d="M65.4751 6.22575C65.8697 6.22575 66.128 6.5084 66.1406 6.94383H64.7755C64.8054 6.51098 65.0804 6.22575 65.4751 6.22575ZM66.1376 7.83763C66.0384 8.05408 65.8177 8.17378 65.4948 8.17378C65.0685 8.17378 64.7928 7.86567 64.7755 7.37932V7.34876H66.6835V7.15777C66.6835 6.28685 66.2297 5.75977 65.4775 5.75977C64.7157 5.75977 64.2319 6.32256 64.2319 7.20869C64.2319 8.09482 64.7061 8.63977 65.4799 8.63977C66.0981 8.63977 66.5299 8.33422 66.6513 7.83763H66.1376Z" fill="black"/>
<path d="M15.7937 12.2037C15.8075 11.1293 16.3821 10.1128 17.2938 9.55012C16.7187 8.72543 15.7554 8.20258 14.7532 8.17113C13.6843 8.05846 12.648 8.8133 12.1033 8.8133C11.5481 8.8133 10.7094 8.18232 9.80634 8.20098C8.62917 8.23913 7.53182 8.91109 6.95912 9.94432C5.72802 12.0844 6.64632 15.2294 7.82559 16.9592C8.41561 17.8062 9.10518 18.7524 10.0074 18.7188C10.8904 18.6821 11.2201 18.1535 12.2859 18.1535C13.3418 18.1535 13.6512 18.7188 14.5717 18.6975C15.5192 18.6821 16.1161 17.8467 16.6854 16.9916C17.1093 16.3881 17.4356 15.721 17.6519 15.0152C16.5385 14.5424 15.795 13.4175 15.7937 12.2037Z" fill="black"/>
<path d="M13.951 7.13559C14.4967 6.4837 14.7656 5.64577 14.7004 4.7998C13.8667 4.88694 13.0966 5.28346 12.5435 5.91036C12.0027 6.52284 11.7212 7.34597 11.7745 8.15967C12.6084 8.16817 13.4283 7.7824 13.951 7.13559Z" fill="black"/>
<path d="M71.1768 1H5.00957C2.76872 1 0.952148 2.64162 0.952148 4.66667V19.3333C0.952148 21.3584 2.76872 23 5.00957 23H71.1768C73.4176 23 75.2342 21.3584 75.2342 19.3333V4.66667C75.2342 2.64162 73.4176 1 71.1768 1Z" stroke="black"/>
</svg>
