<svg width="80" height="24" viewBox="0 0 80 24" fill="none" xmlns="http://www.w3.org/2000/svg">
<g clip-path="url(#clip0_327_93)">
<path d="M75.9399 0.300049H4.06018C1.98392 0.300049 0.300781 1.97898 0.300781 4.05005V19.9501C0.300781 22.0211 1.98392 23.7001 4.06018 23.7001H75.9399C78.0161 23.7001 79.6993 22.0211 79.6993 19.9501V4.05005C79.6993 1.97898 78.0161 0.300049 75.9399 0.300049Z" fill="white"/>
<path d="M27.3062 15.247H29.4088L28.656 13.2368C28.5525 12.9591 28.4506 12.6524 28.3502 12.3165C28.2595 12.6137 28.1608 12.9171 28.0539 13.2271L27.3062 15.247ZM29.7681 16.2012H26.9516L26.2622 18.0806H25.0239L27.7821 11.062H28.9523L31.7736 18.0806H30.4723L29.7681 16.2012Z" fill="black"/>
<path d="M35.4265 16.8043C35.6709 16.4766 35.7932 15.9978 35.7932 15.3681C35.7932 14.7838 35.6919 14.3598 35.4896 14.0966C35.2872 13.8334 35.0178 13.7019 34.6811 13.7019C34.448 13.7019 34.2327 13.7569 34.0353 13.8665C33.8379 13.9763 33.65 14.1232 33.472 14.3073V17.1071C33.5918 17.1651 33.731 17.2112 33.8896 17.245C34.0483 17.279 34.2053 17.296 34.3606 17.296C34.8269 17.296 35.182 17.132 35.4265 16.8043ZM32.2727 14.133C32.2727 13.7455 32.2597 13.3192 32.2339 12.8543H33.3603C33.4024 13.0706 33.4315 13.2919 33.4478 13.5178C33.9139 13.0109 34.448 12.7573 35.0502 12.7573C35.3998 12.7573 35.7236 12.8453 36.0214 13.0213C36.3191 13.1973 36.5595 13.475 36.7424 13.8544C36.9254 14.2339 37.0169 14.716 37.0169 15.3003C37.0169 15.9106 36.9124 16.4322 36.7036 16.8648C36.4948 17.2976 36.2027 17.6252 35.8272 17.8482C35.4516 18.0709 35.0178 18.1823 34.5258 18.1823C34.1696 18.1823 33.8183 18.1226 33.472 18.0032V20.1634L32.2727 20.2651V14.133Z" fill="black"/>
<path d="M40.8983 16.8043C41.1428 16.4766 41.265 15.9978 41.265 15.3681C41.265 14.7838 41.1638 14.3598 40.9616 14.0966C40.7591 13.8334 40.4896 13.7019 40.153 13.7019C39.9199 13.7019 39.7047 13.7569 39.5072 13.8665C39.3096 13.9763 39.1219 14.1232 38.9439 14.3073V17.1071C39.0637 17.1651 39.2028 17.2112 39.3616 17.245C39.52 17.279 39.6771 17.296 39.8325 17.296C40.2986 17.296 40.6539 17.132 40.8983 16.8043ZM37.7444 14.133C37.7444 13.7455 37.7314 13.3192 37.7056 12.8543H38.8322C38.8742 13.0706 38.9035 13.2919 38.9196 13.5178C39.3857 13.0109 39.9199 12.7573 40.522 12.7573C40.8717 12.7573 41.1952 12.8453 41.4933 13.0213C41.791 13.1973 42.0314 13.475 42.2144 13.8544C42.3971 14.2339 42.4887 14.716 42.4887 15.3003C42.4887 15.9106 42.3841 16.4322 42.1755 16.8648C41.9666 17.2976 41.6743 17.6252 41.299 17.8482C40.9234 18.0709 40.4896 18.1823 39.9975 18.1823C39.6414 18.1823 39.2902 18.1226 38.9439 18.0032V20.1634L37.7444 20.2651V14.133Z" fill="black"/>
<path d="M44.6922 17.7488C44.1742 17.4632 43.776 17.0537 43.4978 16.5209C43.2191 15.9881 43.0801 15.3584 43.0801 14.6318C43.0801 13.844 43.2403 13.1747 43.5608 12.6241C43.8813 12.0736 44.3176 11.6603 44.8693 11.3841C45.4214 11.108 46.0404 10.97 46.7269 10.97C47.1314 10.97 47.5176 11.0144 47.885 11.1032C48.2523 11.192 48.5947 11.3139 48.9121 11.4689L48.606 12.3892C47.9683 12.0857 47.3597 11.9339 46.7804 11.9339C46.2914 11.9339 45.8634 12.038 45.496 12.2464C45.1286 12.4547 44.8427 12.7606 44.6389 13.1642C44.4348 13.5679 44.333 14.0555 44.333 14.627C44.333 15.1277 44.4114 15.5716 44.5683 15.959C44.7254 16.3466 44.9731 16.6534 45.3114 16.8794C45.6497 17.1054 46.0762 17.2184 46.5909 17.2184C46.824 17.2184 47.057 17.199 47.2901 17.1603C47.5232 17.1216 47.7418 17.0651 47.9456 16.9907V15.5716H46.3191V14.6415H49.1111V17.5963C48.7097 17.7835 48.288 17.9274 47.8462 18.0274C47.4042 18.1274 46.9648 18.1774 46.5277 18.1774C45.822 18.1774 45.21 18.0347 44.6922 17.7488Z" fill="black"/>
<path d="M52.6545 17.1118C52.9036 16.9925 53.1076 16.8438 53.2662 16.6663V15.6975C52.9392 15.662 52.6721 15.6443 52.465 15.6443C51.9697 15.6443 51.6273 15.7241 51.4382 15.884C51.2486 16.0437 51.1539 16.2594 51.1539 16.5305C51.1539 16.7891 51.2228 16.9803 51.3604 17.1046C51.498 17.2289 51.6848 17.291 51.9211 17.291C52.1606 17.291 52.4051 17.2314 52.6545 17.1118ZM53.3731 18.0806C53.3309 17.8771 53.3033 17.6464 53.2905 17.388C53.106 17.6077 52.8658 17.7941 52.5693 17.9475C52.2733 18.1008 51.939 18.1774 51.5666 18.1774C51.2656 18.1774 50.9913 18.1186 50.7435 18.0006C50.4961 17.8829 50.2993 17.7052 50.1536 17.4678C50.008 17.2306 49.9351 16.9408 49.9351 16.5983C49.9351 16.0915 50.1179 15.687 50.4838 15.385C50.8496 15.0831 51.4598 14.9322 52.3144 14.9322C52.6349 14.9322 52.9522 14.9549 53.2662 15V14.8983C53.2662 14.4365 53.1674 14.1112 52.97 13.9222C52.7725 13.7335 52.4893 13.639 52.1203 13.639C51.8645 13.639 51.591 13.6761 51.2996 13.7503C51.0083 13.8247 50.7524 13.9135 50.5324 14.0168L50.3429 13.1449C50.5566 13.048 50.8383 12.9592 51.1879 12.8785C51.5376 12.7978 51.9065 12.7573 52.295 12.7573C52.7483 12.7573 53.1334 12.826 53.4507 12.9631C53.768 13.1005 54.0157 13.3363 54.1937 13.6703C54.3718 14.0047 54.4608 14.4544 54.4608 15.0194V17.0972C54.4608 17.3137 54.4736 17.6416 54.4996 18.0806H53.3731Z" fill="black"/>
<path d="M55.3809 16.826V10.6503L56.5754 10.5535V16.6129C56.5754 16.8358 56.6134 16.9931 56.6894 17.0852C56.7655 17.1771 56.8861 17.2234 57.0513 17.2234C57.1257 17.2234 57.2309 17.2057 57.3668 17.1701L57.5077 18.0274C57.3942 18.0726 57.256 18.109 57.0927 18.1363C56.9291 18.1637 56.7744 18.1774 56.6288 18.1774C55.7966 18.1774 55.3809 17.7271 55.3809 16.826Z" fill="black"/>
<path d="M58.3672 16.826V10.6503L59.5617 10.5535V16.6129C59.5617 16.8358 59.5997 16.9931 59.6758 17.0852C59.752 17.1771 59.8726 17.2234 60.0376 17.2234C60.112 17.2234 60.217 17.2057 60.3535 17.1701L60.4943 18.0274C60.3806 18.0726 60.2423 18.109 60.079 18.1363C59.9154 18.1637 59.7608 18.1774 59.6151 18.1774C58.7831 18.1774 58.3672 17.7271 58.3672 16.826Z" fill="black"/>
<path d="M64.2377 14.8595C64.2136 14.443 64.109 14.1306 63.9213 13.9222C63.7336 13.7141 63.4822 13.6098 63.1694 13.6098C62.8645 13.6098 62.6112 13.7149 62.4091 13.9247C62.207 14.1347 62.0735 14.4463 62.0127 14.8595H64.2377ZM65.407 15.62H61.979C62.0338 16.7147 62.5565 17.2621 63.5478 17.2621C63.7932 17.2621 64.0452 17.2322 64.3033 17.1725C64.5601 17.1126 64.8067 17.0328 65.0425 16.9326L65.306 17.7512C64.7189 18.0355 64.0608 18.1774 63.3294 18.1774C62.7712 18.1774 62.3033 18.0726 61.9213 17.8627C61.5381 17.6528 61.2506 17.3509 61.0581 16.9568C60.8663 16.5631 60.77 16.0883 60.77 15.5328C60.77 14.9549 60.8717 14.4575 61.0762 14.041C61.2795 13.6244 61.5634 13.3064 61.9279 13.0868C62.2918 12.8672 62.7123 12.7573 63.1887 12.7573C63.6843 12.7573 64.0963 12.8728 64.4284 13.1038C64.7604 13.3345 65.0058 13.6422 65.1664 14.0264C65.3264 14.4108 65.407 14.8353 65.407 15.3003V15.62Z" fill="black"/>
<path d="M66.3147 14.1669C66.3147 13.8796 66.3003 13.442 66.2744 12.8543H67.3974C67.4167 12.9996 67.4341 13.1731 67.4534 13.375C67.4714 13.5767 67.4822 13.7406 67.4888 13.8665C67.6284 13.6373 67.7649 13.4444 67.8997 13.2878C68.0344 13.1311 68.1914 13.0036 68.3713 12.905C68.5505 12.8066 68.7544 12.7573 68.9854 12.7573C69.1701 12.7573 69.327 12.7768 69.46 12.8155L69.3096 13.8521C69.1941 13.8166 69.0642 13.7987 68.921 13.7987C68.6407 13.7987 68.3935 13.8706 68.1836 14.0144C67.9731 14.158 67.7487 14.3945 67.5081 14.7239V18.0806H66.3147V14.1669Z" fill="black"/>
<path d="M70.1334 20.219C69.959 20.1885 69.8146 20.1537 69.7021 20.115L69.9205 19.2432C70.0005 19.2656 70.1034 19.2874 70.2267 19.3084C70.3488 19.3296 70.4655 19.3399 70.5761 19.3399C71.1073 19.3399 71.5049 18.9991 71.7695 18.3179L71.8483 18.1242L69.9157 12.8542H71.2017L72.1737 15.7992C72.3313 16.303 72.4336 16.6889 72.4787 16.9568C72.5701 16.579 72.676 16.2012 72.7993 15.8234L73.7858 12.8542H74.9936L73.0676 18.1485C72.8859 18.6489 72.6886 19.0525 72.4787 19.3593C72.2688 19.666 72.0197 19.8937 71.7346 20.0423C71.4471 20.1907 71.1024 20.2651 70.6964 20.2651C70.4961 20.2651 70.3085 20.2499 70.1334 20.219Z" fill="black"/>
<path d="M25.0186 4.38062H27.1564L27.0963 4.89566H25.6451V5.8931H27.0135V6.37564H25.6451V7.4806H27.1739L27.1213 8.00062H25.0186V4.38062Z" fill="black"/>
<path d="M28.6301 6.1531L27.5024 4.38062H28.2141L28.9785 5.68318L29.7831 4.38062H30.4748L29.3569 6.13054L30.5674 8.00062H29.8456L28.9811 6.57568L28.1013 8.00062H27.4097L28.6301 6.1531Z" fill="black"/>
<path d="M32.5997 5.99678C32.7334 5.87614 32.8003 5.70558 32.8003 5.48558C32.8003 5.26222 32.7321 5.10158 32.5961 5.00318C32.4599 4.90478 32.2597 4.85566 31.9958 4.85566H31.655V6.14062C31.812 6.16558 31.9323 6.17806 32.0159 6.17806C32.2714 6.17806 32.4662 6.11776 32.5997 5.99678ZM31.0283 4.38062H32.0058C32.4652 4.38062 32.817 4.47406 33.0609 4.66062C33.3049 4.84734 33.4268 5.11726 33.4268 5.47054C33.4268 5.71054 33.3721 5.9203 33.2627 6.09934C33.1531 6.27856 33.0008 6.41614 32.8052 6.51184C32.6099 6.60784 32.385 6.65566 32.1311 6.65566C31.9925 6.65566 31.8337 6.63904 31.655 6.60556V8.00062H31.0283V4.38062Z" fill="black"/>
<path d="M34.0459 4.38062H34.6724V7.4656H36.1736L36.121 8.00062H34.0459V4.38062Z" fill="black"/>
<path d="M38.7502 7.37935C38.9256 7.26193 39.0567 7.10035 39.1436 6.89443C39.2306 6.68863 39.274 6.45313 39.274 6.18817C39.274 5.92817 39.2355 5.69665 39.1587 5.49313C39.0817 5.28976 38.959 5.12785 38.7902 5.00689C38.6215 4.88609 38.4044 4.82561 38.1386 4.82561C37.8847 4.82561 37.6691 4.88689 37.492 5.00945C37.3149 5.13185 37.1821 5.29616 37.0935 5.50193C37.005 5.70785 36.9608 5.93488 36.9608 6.18319C36.9608 6.44479 37.0025 6.67903 37.086 6.88561C37.1694 7.09231 37.2973 7.25569 37.4695 7.37569C37.6415 7.49569 37.8545 7.55569 38.1086 7.55569C38.3609 7.55569 38.5747 7.49683 38.7502 7.37935ZM37.1261 7.82323C36.8605 7.67155 36.6574 7.45855 36.5171 7.18435C36.3767 6.91027 36.3066 6.59155 36.3066 6.22819C36.3066 5.84657 36.3812 5.51281 36.5309 5.22689C36.6804 4.94113 36.8959 4.72033 37.1774 4.56433C37.4589 4.40864 37.791 4.33057 38.1737 4.33057C38.5396 4.33057 38.8546 4.40609 39.1186 4.55681C39.3825 4.70785 39.5839 4.91984 39.7225 5.19313C39.8613 5.46656 39.9306 5.7832 39.9306 6.14323C39.9306 6.53155 39.855 6.86911 39.7038 7.15567C39.5525 7.44223 39.3371 7.66321 39.0572 7.81807C38.7773 7.97311 38.4487 8.05063 38.071 8.05063C37.7068 8.05063 37.3918 7.97491 37.1261 7.82323Z" fill="black"/>
<path d="M41.6123 6.0931C41.7643 6.0931 41.8988 6.06364 42.0157 6.0043C42.1327 5.94526 42.2237 5.8619 42.2889 5.75438C42.3542 5.64686 42.3868 5.52222 42.3868 5.38062C42.3868 5.19901 42.329 5.06605 42.2138 4.9819C42.0985 4.89774 41.9306 4.85566 41.71 4.85566H41.2564V6.0931H41.6123ZM40.6299 4.38062H41.7652C42.1795 4.38062 42.4933 4.46318 42.7063 4.62814C42.9193 4.7931 43.0258 5.0291 43.0258 5.33566C43.0258 5.52734 42.9873 5.69614 42.9104 5.8419C42.8336 5.98782 42.7383 6.10654 42.6248 6.19804C42.5111 6.28972 42.3943 6.35806 42.274 6.40318L43.3892 8.00062H42.6625L41.7175 6.5656H41.2564V8.00062H40.6299V4.38062Z" fill="black"/>
<path d="M43.8857 4.38062H46.0235L45.9634 4.89566H44.5123V5.8931H45.8806V6.37564H44.5123V7.4806H46.041L45.9884 8.00062H43.8857V4.38062Z" fill="black"/>
<path d="M48.3491 4.38062H48.9756V8.00062H48.3491V4.38062Z" fill="black"/>
<path d="M50.6327 4.90318H49.5073L49.5625 4.38062H52.3871L52.3294 4.90318H51.2592V8.00062H50.6327V4.90318Z" fill="black"/>
<path d="M56.7303 7.37935C56.9056 7.26193 57.0368 7.10035 57.1238 6.89443C57.2105 6.68863 57.254 6.45313 57.254 6.18817C57.254 5.92817 57.2155 5.69665 57.1388 5.49313C57.0618 5.28976 56.939 5.12785 56.7704 5.00689C56.6015 4.88609 56.3844 4.82561 56.1187 4.82561C55.8647 4.82561 55.6492 4.88689 55.4721 5.00945C55.2949 5.13185 55.162 5.29616 55.0737 5.50193C54.985 5.70785 54.9407 5.93488 54.9407 6.18319C54.9407 6.44479 54.9824 6.67903 55.0662 6.88561C55.1495 7.09231 55.2774 7.25569 55.4495 7.37569C55.6216 7.49569 55.8346 7.55569 56.0887 7.55569C56.3409 7.55569 56.5548 7.49683 56.7303 7.37935ZM55.1063 7.82323C54.8405 7.67155 54.6375 7.45855 54.4972 7.18435C54.3569 6.91027 54.2866 6.59155 54.2866 6.22819C54.2866 5.84657 54.3613 5.51281 54.511 5.22689C54.6603 4.94113 54.8759 4.72033 55.1576 4.56433C55.4391 4.40864 55.7711 4.33057 56.1538 4.33057C56.5197 4.33057 56.8346 4.40609 57.0988 4.55681C57.3626 4.70785 57.5639 4.91984 57.7027 5.19313C57.8413 5.46656 57.9107 5.7832 57.9107 6.14323C57.9107 6.53155 57.835 6.86911 57.6839 7.15567C57.5326 7.44223 57.3171 7.66321 57.0373 7.81807C56.7574 7.97311 56.4286 8.05063 56.051 8.05063C55.6867 8.05063 55.3719 7.97491 55.1063 7.82323Z" fill="black"/>
<path d="M58.6099 4.38062H59.3293L61.1242 7.18558C61.108 6.919 61.1014 6.67312 61.1014 6.44812V4.38062H61.6824V8.00062H60.9859L59.1639 5.15054C59.1822 5.47406 59.1913 5.76062 59.1913 6.01054V8.00062H58.6099V4.38062Z" fill="black"/>
<path d="M11.9028 13.2152H12.514L12.2074 12.5042L11.9028 13.2152Z" fill="black"/>
<path fill-rule="evenodd" clip-rule="evenodd" d="M16.2058 4.3999H9.5421C6.40303 4.3999 5.25488 5.54518 5.25488 8.67638V15.3235C5.25488 18.4546 6.40303 19.5999 9.5421 19.5999H16.2037C19.3428 19.5999 20.493 18.4546 20.493 15.3235V8.67638C20.493 5.54518 19.3448 4.3999 16.2058 4.3999ZM11.7524 13.5736L11.5711 13.9874H11.1584L12.0362 12.0012H12.3927L13.2669 13.9874H12.8431L12.6641 13.5736H11.7524ZM18.3935 13.986H18.7924V12.0012H18.3935V13.986ZM16.806 13.1331H17.5411V12.7714H16.806V12.3646H17.8732V12.0025H16.4072V13.9872H17.9116V13.6252H16.806V13.1331ZM15.2211 13.3677L14.7687 12.0012H14.4389L13.9866 13.3677L13.5465 12.0021H13.1163L13.8107 13.9884H14.1452L14.5982 12.6837L15.051 13.9884H15.3887L16.0813 12.0021H15.6622L15.2211 13.3677ZM10.5496 13.1386C10.5496 13.4618 10.3887 13.6344 10.0966 13.6344C9.80291 13.6344 9.64122 13.4569 9.64122 13.1249V12.0024H9.23695V13.1386C9.23695 13.6977 9.54829 14.0182 10.0911 14.0182C10.6392 14.0182 10.9536 13.6916 10.9536 13.1222V12.0012H10.5496V13.1386ZM8.2725 12.0012H8.67653V13.9885H8.2725V13.1815H7.35966V13.9885H6.95545V12.0012H7.35966V12.8029H8.2725V12.0012ZM10.3375 6.94088C10.3375 8.33588 11.4754 9.47096 12.8739 9.47096C14.2724 9.47096 15.4104 8.33588 15.4104 6.94088H15.052C15.052 8.13884 14.075 9.11354 12.8739 9.11354C11.6729 9.11354 10.6958 8.13884 10.6958 6.94088H10.3375Z" fill="black"/>
<path d="M75.9399 0.300049H4.06018C1.98392 0.300049 0.300781 1.97898 0.300781 4.05005V19.9501C0.300781 22.0211 1.98392 23.7001 4.06018 23.7001H75.9399C78.0161 23.7001 79.6993 22.0211 79.6993 19.9501V4.05005C79.6993 1.97898 78.0161 0.300049 75.9399 0.300049Z" stroke="black"/>
</g>
<defs>
<clipPath id="clip0_327_93">
<rect width="80" height="24" fill="white"/>
</clipPath>
</defs>
</svg>
