<svg width="80" height="24" viewBox="0 0 80 24" fill="none" xmlns="http://www.w3.org/2000/svg">
<g clip-path="url(#clip0_323_48)">
<path d="M77.0371 0.300049H2.96305C1.49029 0.300049 0.296387 1.50888 0.296387 3.00005V21C0.296387 22.4912 1.49029 23.7001 2.96305 23.7001H77.0371C78.5099 23.7001 79.7038 22.4912 79.7038 21V3.00005C79.7038 1.50888 78.5099 0.300049 77.0371 0.300049Z" fill="white"/>
<path d="M40.377 13.0507C38.9832 13.0507 37.8472 14.1241 37.8472 15.6025C37.8472 17.0719 38.9832 18.1543 40.377 18.1543C41.7714 18.1543 42.9074 17.0719 42.9074 15.6025C42.9068 14.1241 41.7708 13.0507 40.377 13.0507ZM40.377 17.1499C39.6131 17.1499 38.9548 16.5121 38.9548 15.6031C38.9548 14.6845 39.6137 14.0563 40.377 14.0563C41.1408 14.0563 41.7992 14.6845 41.7992 15.6031C41.7992 16.5115 41.1408 17.1499 40.377 17.1499ZM34.8576 13.0507C33.4638 13.0507 32.3278 14.1241 32.3278 15.6025C32.3278 17.0719 33.4638 18.1543 34.8576 18.1543C36.252 18.1543 37.388 17.0719 37.388 15.6025C37.388 14.1241 36.252 13.0507 34.8576 13.0507ZM34.8576 17.1499C34.0937 17.1499 33.4354 16.5121 33.4354 15.6031C33.4354 14.6845 34.0943 14.0563 34.8576 14.0563C35.6214 14.0563 36.2798 14.6845 36.2798 15.6031C36.2804 16.5115 35.6214 17.1499 34.8576 17.1499ZM28.2928 13.8343V14.9167H30.8517C30.7752 15.5257 30.5749 15.9703 30.2691 16.2793C29.897 16.6561 29.3145 17.0719 28.2928 17.0719C26.7177 17.0719 25.4863 15.7861 25.4863 14.1913C25.4863 12.5965 26.7177 11.3107 28.2928 11.3107C29.1426 11.3107 29.7631 11.6491 30.2211 12.0841L30.9755 11.3203C30.3355 10.7017 29.4863 10.2283 28.2928 10.2283C26.1352 10.2283 24.3213 12.0067 24.3213 14.1913C24.3213 16.3759 26.1352 18.1543 28.2928 18.1543C29.4573 18.1543 30.3361 17.7673 31.0229 17.0425C31.7293 16.3273 31.9491 15.3217 31.9491 14.5099C31.9491 14.2591 31.9302 14.0269 31.8917 13.8337L28.2928 13.8343ZM55.142 14.6749C54.9323 14.1049 54.2923 13.0507 52.9844 13.0507C51.686 13.0507 50.6069 14.0851 50.6069 15.6025C50.6069 17.0329 51.6765 18.1543 53.1083 18.1543C54.2632 18.1543 54.9317 17.4391 55.209 17.0233L54.3497 16.4431C54.0635 16.8685 53.6718 17.1487 53.1083 17.1487C52.5453 17.1487 52.1441 16.8877 51.8863 16.3753L55.2564 14.9641L55.142 14.6749ZM51.705 15.5257C51.6765 14.5393 52.4594 14.0371 53.0229 14.0371C53.462 14.0371 53.8342 14.2597 53.9586 14.5783L51.705 15.5257ZM48.9654 18.0001H50.0724V10.4995H48.9654V18.0001ZM47.1509 13.6213H47.113C46.8647 13.3213 46.3871 13.0507 45.7862 13.0507C44.5257 13.0507 43.3708 14.1721 43.3708 15.6127C43.3708 17.0431 44.5257 18.1549 45.7862 18.1549C46.3877 18.1549 46.8647 17.8843 47.113 17.5753H47.1509V17.9425C47.1509 18.9187 46.6354 19.4407 45.8051 19.4407C45.1272 19.4407 44.7071 18.9481 44.5352 18.5323L43.5711 18.9385C43.8478 19.6147 44.5826 20.4463 45.8051 20.4463C47.1035 20.4463 48.2016 19.6729 48.2016 17.7877V13.2061H47.1515L47.1509 13.6213ZM45.8816 17.1499C45.1177 17.1499 44.4783 16.5019 44.4783 15.6127C44.4783 14.7133 45.1177 14.0563 45.8816 14.0563C46.6354 14.0563 47.2274 14.7133 47.2274 15.6127C47.2274 16.5019 46.6354 17.1499 45.8816 17.1499ZM60.3296 10.4995H57.6801V18.0001H58.7853V15.1585H60.329C61.5545 15.1585 62.7598 14.2603 62.7598 12.8293C62.7598 11.3983 61.5551 10.4995 60.3296 10.4995ZM60.358 14.1145H58.7853V11.5435H60.358C61.1847 11.5435 61.654 12.2365 61.654 12.8293C61.654 13.4101 61.1847 14.1145 60.358 14.1145ZM67.1918 13.0375C66.3912 13.0375 65.5622 13.3945 65.2191 14.1859L66.2004 14.6005C66.4102 14.1859 66.8013 14.0503 67.2108 14.0503C67.7826 14.0503 68.364 14.3977 68.3734 15.0151V15.0925C68.1731 14.9767 67.7441 14.8033 67.2203 14.8033C66.1625 14.8033 65.0851 15.3919 65.0851 16.4917C65.0851 17.4955 65.9527 18.1417 66.9245 18.1417C67.6677 18.1417 68.0777 17.8039 68.3349 17.4079H68.3728V17.9869H69.4407V15.1111C69.4413 13.7803 68.4588 13.0375 67.1918 13.0375ZM67.0579 17.1481C66.6964 17.1481 66.1909 16.9645 66.1909 16.5109C66.1909 15.9319 66.8203 15.7099 67.3637 15.7099C67.849 15.7099 68.0783 15.8161 68.3734 15.9607C68.2875 16.6561 67.6967 17.1481 67.0579 17.1481ZM73.3293 13.2013L72.0617 16.4533H72.0238L70.7083 13.2013H69.5171L71.4899 17.7463L70.3651 20.2747H71.5183L74.5589 13.2013H73.3293ZM63.3702 18.0001H64.4754V10.4995H63.3702V18.0001Z" fill="black"/>
<path d="M28.0995 6.14569C28.0995 6.64849 27.9526 7.04869 27.658 7.34749C27.3238 7.70269 26.8877 7.88029 26.352 7.88029C25.8388 7.88029 25.4021 7.70029 25.0435 7.34029C24.6844 6.97969 24.5049 6.53329 24.5049 6.00049C24.5049 5.46712 24.6844 5.02072 25.0435 4.66072C25.4021 4.30012 25.8388 4.12012 26.352 4.12012C26.6068 4.12012 26.8504 4.17052 27.0815 4.27072C27.3132 4.37152 27.4986 4.50532 27.6373 4.67272L27.325 4.98952C27.0897 4.70452 26.7656 4.56232 26.3513 4.56232C25.9768 4.56232 25.6533 4.69552 25.3801 4.96192C25.1069 5.22832 24.9707 5.57452 24.9707 5.99992C24.9707 6.42529 25.1069 6.77149 25.3801 7.03789C25.6533 7.30429 25.9768 7.43749 26.3513 7.43749C26.7484 7.43749 27.0797 7.30369 27.3446 7.03549C27.5164 6.86089 27.6159 6.61789 27.6426 6.30649H26.3513V5.87392H28.074C28.0918 5.96812 28.0995 6.05869 28.0995 6.14569Z" fill="black"/>
<path d="M30.8317 4.64215H29.2127V5.78335H30.6729V6.21595H29.2127V7.35715H30.8317V7.79995H28.7559V4.19995H30.8317V4.64215Z" fill="black"/>
<path d="M32.7577 7.79995H32.3008V4.64215H31.3076V4.19995H33.7509V4.64215H32.7577V7.79995Z" fill="black"/>
<path d="M35.519 7.79995V4.19995H35.9759V7.79995H35.519Z" fill="black"/>
<path d="M38.0018 7.79995H37.5449V4.64215H36.5518V4.19995H38.995V4.64215H38.0018V7.79995Z" fill="black"/>
<path d="M43.6199 7.3349C43.2703 7.6985 42.8359 7.8803 42.3162 7.8803C41.7965 7.8803 41.3621 7.6985 41.0131 7.3349C40.6635 6.9713 40.4893 6.5261 40.4893 5.9999C40.4893 5.4737 40.6635 5.0285 41.0131 4.6649C41.3621 4.3013 41.7965 4.1189 42.3162 4.1189C42.833 4.1189 43.2667 4.3019 43.6176 4.6673C43.9684 5.0327 44.1438 5.4767 44.1438 5.9999C44.1438 6.5261 43.969 6.9713 43.6199 7.3349ZM41.3503 7.0331C41.6134 7.3031 41.9352 7.4375 42.3162 7.4375C42.6973 7.4375 43.0196 7.3025 43.2821 7.0331C43.5453 6.7631 43.6774 6.4187 43.6774 5.9999C43.6774 5.5811 43.5453 5.2367 43.2821 4.9667C43.0196 4.6967 42.6973 4.5623 42.3162 4.5623C41.9352 4.5623 41.6134 4.6973 41.3503 4.9667C41.0878 5.2367 40.9556 5.5811 40.9556 5.9999C40.9556 6.4187 41.0878 6.7631 41.3503 7.0331Z" fill="black"/>
<path d="M44.7852 7.79995V4.19995H45.3411L47.0691 7.00015H47.0886L47.0691 6.30655V4.19995H47.5259V7.79995H47.0489L45.2409 4.86355H45.2213L45.2409 5.55715V7.79995H44.7852Z" fill="black"/>
<path d="M28.0995 6.14569C28.0995 6.64849 27.9526 7.04869 27.658 7.34749C27.3238 7.70269 26.8877 7.88029 26.352 7.88029C25.8388 7.88029 25.4021 7.70029 25.0435 7.34029C24.6844 6.97969 24.5049 6.53329 24.5049 6.00049C24.5049 5.46712 24.6844 5.02072 25.0435 4.66072C25.4021 4.30012 25.8388 4.12012 26.352 4.12012C26.6068 4.12012 26.8504 4.17052 27.0815 4.27072C27.3132 4.37152 27.4986 4.50532 27.6373 4.67272L27.325 4.98952C27.0897 4.70452 26.7656 4.56232 26.3513 4.56232C25.9768 4.56232 25.6533 4.69552 25.3801 4.96192C25.1069 5.22832 24.9707 5.57452 24.9707 5.99992C24.9707 6.42529 25.1069 6.77149 25.3801 7.03789C25.6533 7.30429 25.9768 7.43749 26.3513 7.43749C26.7484 7.43749 27.0797 7.30369 27.3446 7.03549C27.5164 6.86089 27.6159 6.61789 27.6426 6.30649H26.3513V5.87392H28.074C28.0918 5.96812 28.0995 6.05869 28.0995 6.14569Z" stroke="black" stroke-width="0.2" stroke-miterlimit="10"/>
<path d="M30.8317 4.64215H29.2127V5.78335H30.6729V6.21595H29.2127V7.35715H30.8317V7.79995H28.7559V4.19995H30.8317V4.64215Z" stroke="black" stroke-width="0.2" stroke-miterlimit="10"/>
<path d="M32.7577 7.79995H32.3008V4.64215H31.3076V4.19995H33.7509V4.64215H32.7577V7.79995Z" stroke="black" stroke-width="0.2" stroke-miterlimit="10"/>
<path d="M35.519 7.79995V4.19995H35.9759V7.79995H35.519Z" stroke="black" stroke-width="0.2" stroke-miterlimit="10"/>
<path d="M38.0018 7.79995H37.5449V4.64215H36.5518V4.19995H38.995V4.64215H38.0018V7.79995Z" stroke="black" stroke-width="0.2" stroke-miterlimit="10"/>
<path d="M43.6199 7.3349C43.2703 7.6985 42.8359 7.8803 42.3162 7.8803C41.7965 7.8803 41.3621 7.6985 41.0131 7.3349C40.6635 6.9713 40.4893 6.5261 40.4893 5.9999C40.4893 5.4737 40.6635 5.0285 41.0131 4.6649C41.3621 4.3013 41.7965 4.1189 42.3162 4.1189C42.833 4.1189 43.2667 4.3019 43.6176 4.6673C43.9684 5.0327 44.1438 5.4767 44.1438 5.9999C44.1438 6.5261 43.969 6.9713 43.6199 7.3349ZM41.3503 7.0331C41.6134 7.3031 41.9352 7.4375 42.3162 7.4375C42.6973 7.4375 43.0196 7.3025 43.2821 7.0331C43.5453 6.7631 43.6774 6.4187 43.6774 5.9999C43.6774 5.5811 43.5453 5.2367 43.2821 4.9667C43.0196 4.6967 42.6973 4.5623 42.3162 4.5623C41.9352 4.5623 41.6134 4.6973 41.3503 4.9667C41.0878 5.2367 40.9556 5.5811 40.9556 5.9999C40.9556 6.4187 41.0878 6.7631 41.3503 7.0331Z" stroke="black" stroke-width="0.2" stroke-miterlimit="10"/>
<path d="M44.7852 7.79995V4.19995H45.3411L47.0691 7.00015H47.0886L47.0691 6.30655V4.19995H47.5259V7.79995H47.0489L45.2409 4.86355H45.2213L45.2409 5.55715V7.79995H44.7852Z" stroke="black" stroke-width="0.2" stroke-miterlimit="10"/>
<path fill-rule="evenodd" clip-rule="evenodd" d="M15.3214 8.53934L8.4938 4.53029C8.23597 4.37393 7.93505 4.28369 7.61303 4.28369C6.94868 4.28369 6.36438 4.69126 6.08414 5.26101L6.13546 5.31296L12.3221 11.5756L15.3214 8.53934ZM5.90997 5.93312C5.9088 5.95852 5.9082 5.98403 5.9082 6.00962V17.9902C5.9082 18.0158 5.9088 18.0413 5.90996 18.0666L11.903 11.9998L5.90997 5.93312ZM6.08414 18.7387C6.36444 19.3085 6.9488 19.7161 7.61303 19.7161C7.92811 19.7161 8.22394 19.6299 8.47762 19.4784L8.49777 19.4665L15.3332 15.4721L12.3221 12.424L6.13546 18.6868L6.08414 18.7387ZM15.8646 15.1615L18.648 13.5349C19.1827 13.2427 19.5457 12.672 19.5457 12.0138C19.5457 11.3604 19.1876 10.7925 18.6582 10.4993L18.6521 10.4951L15.8519 8.85086L12.7412 11.9998L15.8646 15.1615Z" fill="black"/>
<path d="M77.0371 0.300049H2.96305C1.49029 0.300049 0.296387 1.50888 0.296387 3.00005V21C0.296387 22.4912 1.49029 23.7001 2.96305 23.7001H77.0371C78.5099 23.7001 79.7038 22.4912 79.7038 21V3.00005C79.7038 1.50888 78.5099 0.300049 77.0371 0.300049Z" stroke="black"/>
</g>
<defs>
<clipPath id="clip0_323_48">
<rect width="80" height="24" fill="white"/>
</clipPath>
</defs>
</svg>
